<?xml version="1.0" encoding="UTF-8"?>
<svg version="1.1" xmlns="http://www.w3.org/2000/svg" width="512" height="512">
<path d="M0 0 C1.01790619 0.00215515 2.03581238 0.0043103 3.08456421 0.00653076 C17.69363523 0.05620146 32.02575853 0.30709809 46.375 3.3125 C47.34985352 3.51117676 48.32470703 3.70985352 49.32910156 3.91455078 C97.7109774 14.03517194 141.69928269 35.9516877 177.375 70.3125 C178.3640332 71.26068604 178.3640332 71.26068604 179.37304688 72.22802734 C188.86130305 81.37247479 197.6012044 90.66984009 205.375 101.3125 C206.23306152 102.46355017 207.09113451 103.61459177 207.94921875 104.765625 C213.98736829 112.95680614 219.34595521 121.47054105 224.375 130.3125 C224.73948242 130.94430176 225.10396484 131.57610352 225.47949219 132.22705078 C247.08534998 169.97532572 256.85198095 212.74189997 256.6875 255.9375 C256.68534485 256.95540619 256.6831897 257.97331238 256.68096924 259.02206421 C256.63129854 273.63113523 256.38040191 287.96325853 253.375 302.3125 C253.07698486 303.77478027 253.07698486 303.77478027 252.77294922 305.26660156 C242.65232806 353.6484774 220.7358123 397.63678269 186.375 433.3125 C185.74287598 433.97185547 185.11075195 434.63121094 184.45947266 435.31054688 C175.31502521 444.79880305 166.01765991 453.5387044 155.375 461.3125 C154.22394983 462.17056152 153.07290823 463.02863451 151.921875 463.88671875 C143.73224019 469.92427396 135.22961724 475.30707302 126.375 480.3125 C125.66778809 480.7146875 124.96057617 481.116875 124.23193359 481.53125 C101.09654164 494.5566741 75.92537591 503.30551461 49.9375 508.625 C49.21860596 508.77235596 48.49971191 508.91971191 47.7590332 509.0715332 C33.08339502 511.86090125 18.55831162 512.66142619 3.64770508 512.62817383 C0.70811513 512.6250221 -2.2304558 512.64854926 -5.16992188 512.67382812 C-18.54306192 512.71848737 -31.43916711 511.51301542 -44.625 509.3125 C-46.33055054 509.03031616 -46.33055054 509.03031616 -48.07055664 508.74243164 C-91.33802759 500.97044532 -132.38793216 480.98345309 -165.625 452.3125 C-166.37007813 451.67828125 -167.11515625 451.0440625 -167.8828125 450.390625 C-181.38779833 438.57948485 -194.05918743 425.82889772 -204.625 411.3125 C-205.48149066 410.16255169 -206.33826433 409.01281411 -207.1953125 407.86328125 C-213.23534209 399.67315742 -218.61867614 391.16870382 -223.625 382.3125 C-224.0271875 381.60528809 -224.429375 380.89807617 -224.84375 380.16943359 C-237.8691741 357.03404164 -246.61801461 331.86287591 -251.9375 305.875 C-252.08485596 305.15610596 -252.23221191 304.43721191 -252.3840332 303.6965332 C-255.35789088 288.05024391 -255.99800362 272.57681954 -255.9375 256.6875 C-255.93534485 255.66959381 -255.9331897 254.65168762 -255.93096924 253.60293579 C-255.88129854 238.99386477 -255.63040191 224.66174147 -252.625 210.3125 C-252.42632324 209.33764648 -252.22764648 208.36279297 -252.02294922 207.35839844 C-241.90232806 158.9765226 -219.9858123 114.98821731 -185.625 79.3125 C-184.99287598 78.65314453 -184.36075195 77.99378906 -183.70947266 77.31445312 C-174.56502521 67.82619695 -165.26765991 59.0862956 -154.625 51.3125 C-153.47394983 50.45443848 -152.32290823 49.59636549 -151.171875 48.73828125 C-142.98224019 42.70072604 -134.47961724 37.31792698 -125.625 32.3125 C-124.91778809 31.9103125 -124.21057617 31.508125 -123.48193359 31.09375 C-100.34654164 18.0683259 -75.17537591 9.31948539 -49.1875 4 C-48.46860596 3.85264404 -47.74971191 3.70528809 -47.0090332 3.5534668 C-31.36274391 0.57960912 -15.88931954 -0.06050362 0 0 Z " fill="#00C7C7" transform="translate(255.625,-0.3125)"/>
<path d="M0 0 C4.08027843 2.04013921 6.89480994 4.48285841 10.14550781 7.58520508 C10.75081329 8.15648636 11.35611877 8.72776764 11.97976685 9.31636047 C17.56146526 14.60297282 23.07995139 19.95612398 28.57991409 25.32759571 C32.26808475 28.92882065 35.97345388 32.50691403 39.73046875 36.03637695 C43.37473671 39.4607309 46.96331908 42.93548138 50.52046967 46.45017052 C51.87557472 47.7718239 53.24861343 49.07537349 54.64011383 50.35865211 C60.7928098 56.0549641 66.03723676 60.9503263 66.8236084 69.64291382 C66.96830951 74.80070231 66.64824515 79.88363793 66 85 C65.34 85 64.68 85 64 85 C63.95101563 83.81921875 63.90203125 82.6384375 63.8515625 81.421875 C63.77651121 79.86456063 63.70096439 78.30727009 63.625 76.75 C63.5940625 75.97269531 63.563125 75.19539063 63.53125 74.39453125 C63.30392276 68.90566063 63.30392276 68.90566063 61 64 C58.32366974 61.9184098 56.88246332 62.00412409 53.4375 62.125 C50.0688023 62.6958075 50.0688023 62.6958075 48.31338501 64.53530884 C46.43858597 68.05354652 46.54938658 71.41737839 46.54833984 75.31005859 C46.53665771 76.14646881 46.52497559 76.98287903 46.51293945 77.84463501 C46.47932646 80.6126858 46.46860925 83.38020046 46.4609375 86.1484375 C46.44874977 88.08216537 46.43626352 90.01589138 46.42349243 91.94961548 C46.40100129 96.00991033 46.39146165 100.07001745 46.38916016 104.13037109 C46.3839046 109.29961573 46.33275235 114.4672659 46.26964378 119.6360836 C46.22848052 123.63593468 46.21951568 127.63541235 46.21904373 131.63545609 C46.21370172 133.53863839 46.19702387 135.44182762 46.16819382 137.34479904 C46.00220091 149.30869779 46.70366656 159.05479348 54 169 C56.43596531 171.09816071 56.43596531 171.09816071 58.8828125 172.65234375 C61.65939359 174.5318665 62.80327522 175.33217114 63.76074219 178.58251953 C64.00070678 181.61143974 63.99881739 184.52703927 63.875 187.5625 C63.40558778 196.78240869 63.40558778 196.78240869 67 205 C72.43418241 209.82010983 77.48272472 209.58479929 84.53125 209.53125 C85.64052856 209.5350769 86.74980713 209.53890381 87.8927002 209.54284668 C90.23267527 209.5455627 92.57268087 209.53822336 94.91259766 209.52148438 C98.48799528 209.50007189 102.0613834 209.52129824 105.63671875 209.546875 C107.91406692 209.54423167 110.19141385 209.53910659 112.46875 209.53125 C113.53452271 209.53934692 114.60029541 209.54744385 115.69836426 209.55578613 C121.76348114 209.47940788 125.43067092 209.12885642 130 205 C135.00187728 198.84929357 134.48764896 191.57982419 134.3125 184.0703125 C134.33496836 181.5913038 134.40268271 179.40749914 135 177 C137.83984375 174.59375 137.83984375 174.59375 141 173 C142.78955908 171.42589786 142.78955908 171.42589786 144.1875 169.75 C144.65542969 169.22921875 145.12335938 168.7084375 145.60546875 168.171875 C150.46092173 160.60988101 150.46731905 153.26505081 150.46875 144.5234375 C150.48017029 142.59741196 150.48017029 142.59741196 150.49182129 140.63247681 C150.50519779 137.92774675 150.50686434 135.22330836 150.50097656 132.51855469 C150.49506366 129.06388893 150.52576593 125.61062044 150.56609344 122.1562252 C150.59823347 118.8410854 150.59385417 115.52623249 150.59375 112.2109375 C150.6183429 110.35920425 150.6183429 110.35920425 150.64343262 108.47006226 C150.73053725 101.36881982 150.73053725 101.36881982 147.57617188 95.26025391 C142.73428294 91.01212959 139.37341719 90.5988801 133 91 C128.45044007 91.60274885 123.94925324 92.41367501 119.4375 93.25 C118.24447266 93.45496094 117.05144531 93.65992188 115.82226562 93.87109375 C109.45542472 95.03899675 104.28829815 96.18975147 99 100 C96.01280995 104.33624363 95.44205012 107.7924678 96 113 C97.81397473 118.13959507 100.08375972 120.63292134 105 123 C111.49251376 124.16734086 117.81779903 122.27282606 124.08203125 120.65625 C127 120 127 120 131 120 C131 121.65 131 123.3 131 125 C129.91114502 125.17221069 129.91114502 125.17221069 128.80029297 125.34790039 C125.48616626 125.88949526 122.18136879 126.47547324 118.875 127.0625 C117.73289062 127.24232422 116.59078125 127.42214844 115.4140625 127.60742188 C109.03300913 128.77604502 104.86105453 129.80748309 101.03027344 135.24584961 C99.77547078 137.38228494 98.61386359 139.44837417 97.6875 141.75 C97.38199219 142.48734375 97.07648438 143.2246875 96.76171875 143.984375 C96.13530231 145.64196928 95.56035849 147.31892454 95 149 C92.69 149 90.38 149 88 149 C88.29715366 141.12542802 91.3595732 133.6404268 97 128 C96.71676025 124.03464356 94.17330788 121.19204595 92 118 C90.2493946 112.74818379 89.9427963 106.93942151 91.8359375 101.67578125 C94.7217688 96.59168248 98.67131515 93.35565139 104 91 C109.7345269 89.43423123 115.53342815 88.33401551 121.375 87.25 C123.72662833 86.79833729 126.07731237 86.34209317 128.42764282 85.88372803 C129.88240403 85.60165577 131.33809632 85.3243343 132.79476929 85.05230713 C136.50555645 84.36957969 136.50555645 84.36957969 140 83 C140.87169881 80.55882735 140.87169881 80.55882735 141.57226562 77.53735352 C141.86597046 76.36846085 142.15967529 75.19956818 142.46228027 73.99525452 C142.77379028 72.71935959 143.08530029 71.44346466 143.40625 70.12890625 C143.73425168 68.80891469 144.06291533 67.48908745 144.39221191 66.16941833 C145.08303473 63.39385685 145.768477 60.6170426 146.44970703 57.83911133 C147.31670771 54.30381087 148.1925989 50.77079896 149.07209015 47.23858738 C149.91576211 43.84863149 150.7549417 40.45756827 151.59375 37.06640625 C151.90526001 35.8087294 152.21677002 34.55105255 152.53771973 33.25526428 C156.07824418 19.79118767 156.07824418 19.79118767 157 6 C160.71937522 7.57601563 163.2475141 9.88398586 166.17993164 12.63549805 C166.68288254 13.10603104 167.18583344 13.57656403 167.70402527 14.06135559 C172.35361366 18.42936031 176.9420796 22.86229935 181.51296329 27.31245708 C184.57353131 30.29154695 187.64983618 33.24829957 190.77661133 36.15795898 C215.54396126 59.2489367 215.54396126 59.2489367 216.22257996 74.59440613 C216.2192207 76.461515 216.17986649 78.32891473 216.10409546 80.19448853 C215.99781719 83.05882962 216.07155451 85.87003855 216.19458008 88.7331543 C216.41999158 94.49295289 216.42306966 100.23676066 216.375 106 C216.37034729 107.00292084 216.36569458 108.00584167 216.36090088 109.03915405 C216.28223631 123.5279858 215.98024598 137.7708651 213 152 C212.70198486 153.46228027 212.70198486 153.46228027 212.39794922 154.95410156 C202.27732806 203.3359774 180.3608123 247.32428269 146 283 C145.36787598 283.65935547 144.73575195 284.31871094 144.08447266 284.99804688 C134.94002521 294.48630305 125.64265991 303.2262044 115 311 C113.84894983 311.85806152 112.69790823 312.71613451 111.546875 313.57421875 C103.35724019 319.61177396 94.85461724 324.99457302 86 330 C85.29278809 330.4021875 84.58557617 330.804375 83.85693359 331.21875 C60.72154164 344.2441741 35.55037591 352.99301461 9.5625 358.3125 C8.84360596 358.45985596 8.12471191 358.60721191 7.3840332 358.7590332 C0.85767552 359.99948444 -5.73391494 360.71156775 -12.3305645 361.457407 C-15.31733255 361.79572261 -18.29369669 362.1737864 -21.27018929 362.59253502 C-34.90055442 364.42868071 -49.28432875 365.81880201 -60.89181519 357.25186157 C-68.36738592 351.32764886 -74.86565705 344.31776803 -81.32280231 337.32737947 C-84.59128218 333.83023113 -87.96564456 330.43806226 -91.32887268 327.03239441 C-97.65859371 320.59169894 -103.89114149 314.065206 -110.09203535 307.50065011 C-117.14739913 300.04082979 -124.30702257 292.68469129 -131.47670639 285.33494341 C-143.72370367 272.77678697 -155.8918214 260.14647772 -167.97206116 247.42784119 C-168.48070098 246.89257598 -168.98934079 246.35731078 -169.51339394 245.80582541 C-170.8645236 244.38336813 -172.21450316 242.95981864 -173.56438351 241.53617573 C-176.00991195 238.98967882 -178.5027708 236.4956435 -181 234 C-182.36470146 232.48861278 -183.71881014 230.9675977 -185.0625 229.4375 C-188.72530338 225.34377858 -192.49897261 221.39015414 -196.375 217.5 C-196.88683838 216.9836499 -197.39867676 216.4672998 -197.92602539 215.93530273 C-200.19347146 213.67687983 -202.32665168 211.78223221 -205 210 C-204.505 209.01 -204.505 209.01 -204 208 C-203.67 208.33 -203.34 208.66 -203 209 C-201.47235284 209.11404676 -199.93951397 209.15956738 -198.40771484 209.17700195 C-196.94016251 209.19625481 -196.94016251 209.19625481 -195.44296265 209.21589661 C-193.8431102 209.22697701 -193.8431102 209.22697701 -192.2109375 209.23828125 C-190.57325912 209.25038887 -190.57325912 209.25038887 -188.90249634 209.26274109 C-186.5839396 209.27660491 -184.26536225 209.28731672 -181.94677734 209.29516602 C-178.41073387 209.31232658 -174.87563772 209.35618703 -171.33984375 209.40039062 C-169.08854855 209.41052166 -166.83724539 209.41903648 -164.5859375 209.42578125 C-163.00430313 209.45204338 -163.00430313 209.45204338 -161.39071655 209.47883606 C-155.04355022 209.46021637 -151.13175895 208.84200484 -146 205 C-142.13059597 198.71911402 -142.60601343 192.30729927 -142.73632812 185.11914062 C-142.70067187 182.62132611 -142.61509968 180.42257708 -142 178 C-139.15625 175.5859375 -139.15625 175.5859375 -136 174 C-130.24957472 168.85092639 -127.47096914 162.77094212 -126.71536255 155.11660767 C-126.58885325 151.84097707 -126.55794841 148.57883882 -126.56640625 145.30078125 C-126.5611644 144.10696335 -126.55592255 142.91314545 -126.55052185 141.68315125 C-126.54412742 139.17280858 -126.545405 136.66243585 -126.55395508 134.15209961 C-126.56249722 130.31375071 -126.53361297 126.47687532 -126.50195312 122.63867188 C-126.50034171 120.19270878 -126.50091751 117.74674305 -126.50390625 115.30078125 C-126.49267227 114.15692459 -126.48143829 113.01306793 -126.46986389 111.83454895 C-126.52441192 105.60322008 -126.72571993 101.68859619 -131 97 C-137.61415634 92.49034795 -144.26683449 93.76490133 -151.73046875 95.13671875 C-154.21797376 95.6447768 -156.70363323 96.16194309 -159.1875 96.6875 C-161.0737207 97.05391602 -161.0737207 97.05391602 -162.99804688 97.42773438 C-164.8146582 97.80961914 -164.8146582 97.80961914 -166.66796875 98.19921875 C-167.76391357 98.42440186 -168.8598584 98.64958496 -169.98901367 98.8815918 C-174.30132014 100.48336557 -176.84665852 103.21351854 -179.31640625 107.0390625 C-180.60884348 110.74651102 -180.01315827 114.27002878 -179 118 C-176.98083181 121.51349843 -174.92457529 123.69180824 -171 125 C-165.07200851 125.32334499 -159.65809955 124.53704631 -153.83203125 123.4375 C-151.16587174 123.02562432 -148.69179698 122.92126371 -146 123 C-145.67 124.32 -145.34 125.64 -145 127 C-145.72590332 127.11480713 -146.45180664 127.22961426 -147.19970703 127.34790039 C-150.51383374 127.88949526 -153.81863121 128.47547324 -157.125 129.0625 C-158.26710937 129.24232422 -159.40921875 129.42214844 -160.5859375 129.60742188 C-167.00842303 130.78363289 -171.08220046 131.83943947 -174.96923828 137.27294922 C-177.61665455 141.70871963 -179.47250055 146.06500178 -181 151 C-183.31 151 -185.62 151 -188 151 C-187.61433654 142.51540392 -183.22785766 134.55830047 -178 128 C-179.175625 126.6696875 -179.175625 126.6696875 -180.375 125.3125 C-184.47507982 120.30645353 -185.51723443 116.00905733 -185.3828125 109.56640625 C-184.58254734 104.2013633 -181.45077778 100.62662963 -177.9375 96.6875 C-170.17448926 92.22789809 -160.26611028 91.43243959 -151.5625 89.8125 C-150.60287354 89.63332031 -149.64324707 89.45414062 -148.65454102 89.26953125 C-147.73858154 89.10453125 -146.82262207 88.93953125 -145.87890625 88.76953125 C-145.0597876 88.62104736 -144.24066895 88.47256348 -143.39672852 88.31958008 C-141 88 -141 88 -136 88 C-136.33 77.44 -136.66 66.88 -137 56 C-136.34 56 -135.68 56 -135 56 C-133.56539917 57.52011108 -133.56539917 57.52011108 -131.89404297 59.59130859 C-128.83644589 63.18736161 -125.64901639 66.02128468 -121.8966217 68.86380005 C-94.41276566 89.77984036 -94.41276566 89.77984036 -91.33935547 105.74511719 C-89.7285023 118.52181276 -90.32503609 131.63513937 -91.71226501 144.4147644 C-92.48730596 152.59058987 -91.14273952 159.66262312 -86.24562073 166.42126465 C-83.80675488 169.34281832 -81.65468029 171.6312063 -78.31640625 173.51171875 C-74.57045771 177.53561288 -75.33547199 182.07824642 -75.375 187.375 C-75.65676704 196.69562369 -75.65676704 196.69562369 -72 205 C-66.53232948 209.87796482 -61.35015013 209.58410667 -54.25 209.53125 C-53.11852539 209.5350769 -51.98705078 209.53890381 -50.82128906 209.54284668 C-48.43423572 209.54556298 -46.04715246 209.53822167 -43.66015625 209.52148438 C-40.01234394 209.50007246 -36.36650125 209.52129746 -32.71875 209.546875 C-30.395829 209.54423168 -28.07290922 209.53910661 -25.75 209.53125 C-24.66235352 209.53934692 -23.57470703 209.54744385 -22.45410156 209.55578613 C-16.33524211 209.48024168 -12.63214377 209.1356053 -8 205 C-3.68966487 199.084561 -4.70333918 192.04475808 -5 185.0546875 C-4.99203608 182.13192761 -4.88532531 179.79022609 -4 177 C-1.87656758 174.98327407 0.24445144 173.68719444 2.80419922 172.27490234 C5.67305212 170.60921968 6.95278725 168.71352391 8.5 165.8125 C8.9640625 164.97332031 9.428125 164.13414062 9.90625 163.26953125 C11.95206905 159.02445673 12.15906379 155.37876526 12.17700195 150.76220703 C12.18685875 149.66169006 12.18685875 149.66169006 12.19691467 148.53894043 C12.21661969 146.11189672 12.22830286 143.68491476 12.23828125 141.2578125 C12.24235678 140.42832973 12.2464323 139.59884697 12.25063133 138.74422836 C12.27147832 134.35536702 12.28578699 129.96653684 12.29516602 125.57763672 C12.30623865 121.04577972 12.34065197 116.51441262 12.38033772 111.98272896 C12.40648205 108.49627774 12.4148558 105.00994379 12.41844749 101.52340317 C12.42331769 99.85284993 12.43494408 98.18230208 12.45348549 96.51184464 C12.4778356 94.17302811 12.47692032 91.83548652 12.4699707 89.49658203 C12.48278076 88.80861542 12.49559082 88.1206488 12.50878906 87.41183472 C12.45768912 82.68722078 11.32493008 80.32229123 8 77 C4.54260443 75.27130221 0.78024432 75.51033105 -3 76 C-5.87029869 77.79393668 -7.49131638 78.98263276 -9 82 C-9.15706331 84.84208026 -9.2584957 87.66337307 -9.31640625 90.5078125 C-9.3475779 91.76874222 -9.3475779 91.76874222 -9.37937927 93.05514526 C-9.44485439 95.74501235 -9.5037502 98.43497843 -9.5625 101.125 C-9.60568716 102.94662489 -9.64930152 104.76823971 -9.69335938 106.58984375 C-9.80053368 111.05979394 -9.90180685 115.52984386 -10 120 C-10.8760791 120.1861084 -11.7521582 120.3722168 -12.65478516 120.56396484 C-13.81284668 120.81871582 -14.9709082 121.0734668 -16.1640625 121.3359375 C-17.3082666 121.5839209 -18.4524707 121.8319043 -19.63134766 122.08740234 C-27.77417056 124.29336495 -33.68417821 128.74599082 -38.59375 135.54296875 C-40.84823079 139.48204769 -42.03252335 143.58646366 -43 148 C-45.31 148 -47.62 148 -50 148 C-49.66435188 137.76273222 -45.69993608 130.20658682 -38.3125 123.125 C-32.02569124 117.83534369 -25.34925107 113.82672844 -17 114 C-17.02094727 113.00145996 -17.04189453 112.00291992 -17.06347656 110.97412109 C-17.136167 107.25063557 -17.1819042 103.5272121 -17.21972656 99.80322266 C-17.23977627 98.19504226 -17.26702364 96.58693417 -17.30175781 94.97900391 C-17.35057264 92.6602998 -17.37303428 90.34256375 -17.390625 88.0234375 C-17.41127014 87.31069672 -17.43191528 86.59795593 -17.45318604 85.86361694 C-17.45614667 79.19755762 -14.70648422 75.78405169 -10.25 71.125 C-7 69 -7 69 1 69 C0.67 46.23 0.34 23.46 0 0 Z " fill="#00A0AA" transform="translate(296,150)"/>
<path d="M0 0 C2.87029869 1.79393668 4.49131638 2.98263276 6 6 C6.09288682 8.50236916 6.12582412 10.97662686 6.11352539 13.47900391 C6.11367142 14.24982803 6.11381744 15.02065216 6.1139679 15.81483459 C6.11326989 18.36877229 6.10548275 20.92263751 6.09765625 23.4765625 C6.09579167 25.24490316 6.09436796 27.01324433 6.09336853 28.78158569 C6.0895465 33.44064759 6.07971888 38.09967842 6.06866455 42.75872803 C6.05844369 47.51102274 6.05386946 52.26332247 6.04882812 57.015625 C6.03809634 66.34376367 6.02102367 75.67187925 6 85 C7.65 85 9.3 85 11 85 C10.99111755 84.0965535 10.98223511 83.19310699 10.9730835 82.26228333 C10.89289613 73.7432457 10.83201449 65.22433504 10.79275131 56.7050066 C10.77188694 52.32522784 10.74359065 47.94576123 10.69824219 43.56616211 C10.65474288 39.33863449 10.63085424 35.11140688 10.62049103 30.88367271 C10.61310694 29.27171799 10.59868733 27.65977947 10.57707977 26.04795265 C10.54799022 23.78787535 10.54404613 21.52903358 10.54589844 19.26879883 C10.53701599 17.98306473 10.52813354 16.69733063 10.51898193 15.37263489 C11.08213947 11.42408307 12.23684865 9.81464303 15 7 C18.26934278 4.71146006 21.0698152 4.52837782 25 5 C28.96174821 7.13324903 31.43285413 8.76193246 33 13 C33.24050903 16.06256104 33.24050903 16.06256104 33.22705078 19.69628906 C33.22734283 20.36011597 33.22763489 21.02394287 33.22793579 21.70788574 C33.22654658 23.89393351 33.21100503 26.07963704 33.1953125 28.265625 C33.19158091 29.78448297 33.18873463 31.30334335 33.18673706 32.82220459 C33.1791121 36.81382937 33.15947344 40.80530789 33.1373291 44.796875 C33.11684614 48.87237571 33.10773011 52.94790012 33.09765625 57.0234375 C33.07622641 65.01569201 33.04210426 73.00782779 33 81 C32.31945557 81.10376953 31.63891113 81.20753906 30.93774414 81.31445312 C30.04176514 81.46849609 29.14578613 81.62253906 28.22265625 81.78125 C27.33586182 81.92626953 26.44906738 82.07128906 25.53540039 82.22070312 C21.37938255 83.49812334 19.27741727 86.4368084 17 90 C15.4725361 93.0549278 15.76008168 96.2763314 15.68359375 99.6328125 C15.6524221 100.76056595 15.6524221 100.76056595 15.62062073 101.91110229 C15.55517295 104.31564085 15.49626262 106.72028967 15.4375 109.125 C15.39431023 110.75391771 15.35069579 112.38282422 15.30664062 114.01171875 C15.19949649 118.00769915 15.09821567 122.00379059 15 126 C14.33830811 126.1853833 13.67661621 126.3707666 12.99487305 126.56176758 C1.64165921 129.83623414 -6.8246237 134.80700617 -13.24609375 144.97265625 C-15.84406221 149.75938934 -17.06058933 154.66019198 -18 160 C-15.69 160 -13.38 160 -11 160 C-10.938125 159.030625 -10.87625 158.06125 -10.8125 157.0625 C-9.65278699 149.30496025 -5.15284653 143.33755029 0.8359375 138.50390625 C6.0498634 134.8805101 10.94854423 132.93470024 17.2890625 132.3984375 C18.6186499 132.28121338 18.6186499 132.28121338 19.97509766 132.16162109 C20.64331543 132.10828613 21.3115332 132.05495117 22 132 C21.97381592 130.88028809 21.94763184 129.76057617 21.9206543 128.60693359 C21.82987128 124.43623996 21.77264939 120.26563291 21.7253418 116.09423828 C21.70026134 114.29200534 21.66618812 112.48987349 21.62280273 110.68798828 C21.5618625 108.09121723 21.53372654 105.49579535 21.51171875 102.8984375 C21.48591232 102.0982016 21.4601059 101.2979657 21.43351746 100.47348022 C21.43146293 96.33708808 21.75682708 93.77952912 24.40551758 90.50634766 C28.19318357 86.84734897 30.56689276 86.60768963 35.671875 86.640625 C39.59004236 87.24544278 41.30358816 89.16876757 44 92 C45.4878325 94.97566501 45.16848449 97.69290822 45.20874023 101.01318359 C45.21852402 101.7354715 45.2283078 102.4577594 45.23838806 103.20193481 C45.26837882 105.60075036 45.28974959 107.99950938 45.30859375 110.3984375 C45.31516558 111.22010029 45.3217374 112.04176308 45.32850838 112.88832474 C45.36113422 117.24633308 45.38556492 121.60431684 45.4050293 125.96240234 C45.42276575 129.55326552 45.45745577 133.14333199 45.50756836 136.73388672 C45.56815808 141.08054043 45.5985594 145.42646175 45.60820198 149.77351761 C45.61670089 151.4215916 45.63537965 153.06964902 45.6649456 154.71747971 C45.85400173 165.86401506 45.05245179 175.39736933 37.0922699 184.08114624 C34.15542789 186.8283016 31.9086172 188.09518083 28 189 C28.01571045 189.63502441 28.0314209 190.27004883 28.04760742 190.92431641 C28.1102859 193.8244523 28.14909417 196.72444524 28.1875 199.625 C28.21263672 200.62402344 28.23777344 201.62304688 28.26367188 202.65234375 C28.31871077 208.19292606 28.21465807 212.25418963 25 217 C20.92426174 220.67810526 18.52579194 222.11767838 13.09472656 222.17700195 C12.07316467 222.18983719 11.05160278 222.20267242 9.99908447 222.21589661 C8.89079285 222.22328354 7.78250122 222.23067047 6.640625 222.23828125 C5.5034906 222.246353 4.3663562 222.25442474 3.19476318 222.26274109 C0.78382903 222.27659098 -1.62712481 222.28730907 -4.03808594 222.29516602 C-7.7210828 222.31236496 -11.40317903 222.3562429 -15.0859375 222.40039062 C-17.42707672 222.41051853 -19.76822359 222.41903433 -22.109375 222.42578125 C-23.75966705 222.45204338 -23.75966705 222.45204338 -25.44329834 222.47883606 C-31.6234316 222.46135307 -35.30985443 222.16016106 -40 218 C-43.39973283 214.13133851 -44.11519154 210.99168107 -44.03515625 205.921875 C-44.04095703 204.92542969 -44.04675781 203.92898438 -44.05273438 202.90234375 C-44.05919668 200.81631223 -44.03876434 198.7300082 -43.99023438 196.64453125 C-44.03741024 190.78878525 -44.03741024 190.78878525 -46.76416016 185.78417969 C-48.76847962 184.03659124 -50.81414008 182.50995996 -53 181 C-59.5699615 174.4300385 -61.44073364 165.19357244 -61.54211426 156.19848633 C-61.53401733 155.14250244 -61.52592041 154.08651855 -61.51757812 152.99853516 C-61.5245874 151.854039 -61.53159668 150.70954285 -61.53881836 149.53036499 C-61.55628972 145.78301058 -61.54481828 142.0364233 -61.53125 138.2890625 C-61.5339469 135.67117163 -61.53783097 133.05328174 -61.54284668 130.43539429 C-61.55009235 124.96677448 -61.54061054 119.49837189 -61.52148438 114.02978516 C-61.49965577 107.71574538 -61.50682218 101.40222115 -61.52879 95.08819354 C-61.54914214 88.99323938 -61.54697432 82.89851327 -61.53526306 76.80353928 C-61.5325949 74.21754255 -61.53586864 71.63153264 -61.54518127 69.0455513 C-61.55532743 65.43837657 -61.53987404 61.83219805 -61.51757812 58.22509766 C-61.52567505 57.15696838 -61.53377197 56.08883911 -61.54211426 54.98834229 C-61.4910482 50.53405961 -61.44941862 47.77261238 -59.17858887 43.8687439 C-56.06893138 41.20135055 -54.07583289 40.85945404 -50 41 C-46.97156904 42.72377209 -44.57976349 44.84047303 -43 48 C-42.91008908 49.54227856 -42.88243039 51.08840895 -42.88647461 52.63330078 C-42.88655014 53.59414581 -42.88662567 54.55499084 -42.88670349 55.54495239 C-42.89186478 56.58457123 -42.89702606 57.62419006 -42.90234375 58.6953125 C-42.9037587 59.75789276 -42.90517365 60.82047302 -42.90663147 61.91525269 C-42.91224166 65.31853009 -42.92479591 68.72174238 -42.9375 72.125 C-42.94251369 74.42838447 -42.94707682 76.73176997 -42.95117188 79.03515625 C-42.9622144 84.69012649 -42.97896248 90.34505859 -43 96 C-42.01 96 -41.02 96 -40 96 C-40.00666183 95.12160965 -40.01332367 94.2432193 -40.02018738 93.33821106 C-40.08033305 85.05460879 -40.125992 76.77108001 -40.15543652 68.48730946 C-40.17108322 64.22866808 -40.19230318 59.97020734 -40.22631836 55.71166992 C-40.25894752 51.60086482 -40.27686051 47.49023332 -40.28463173 43.3793087 C-40.29016887 41.81203161 -40.30098165 40.24476387 -40.31719017 38.67756081 C-40.33901228 36.47990107 -40.34196501 34.28295597 -40.34057617 32.08520508 C-40.34723801 30.83500076 -40.35389984 29.58479645 -40.36076355 28.29670715 C-39.9666397 24.69514898 -39.18433145 22.86073267 -37 20 C-33.27624573 17.51749715 -30.30855244 17.59007699 -26 18 C-23.05510604 18.87550901 -22.22979717 19.68469928 -20.41581726 22.17362976 C-18.72583743 25.54730575 -18.63750865 27.77231754 -18.65942383 31.53442383 C-18.65976372 33.48588066 -18.65976372 33.48588066 -18.66011047 35.47676086 C-18.67542816 36.88685453 -18.69107611 38.29694465 -18.70703125 39.70703125 C-18.71263061 41.15719666 -18.7168991 42.60736777 -18.71989441 44.05754089 C-18.73131653 47.86347279 -18.76076055 51.66905803 -18.79400635 55.47485352 C-18.82476434 59.36274527 -18.83841195 63.25069336 -18.85351562 67.13867188 C-18.8856332 74.75927216 -18.93679713 82.37958739 -19 90 C-18.01 90 -17.02 90 -16 90 C-16.00888245 88.98602142 -16.01776489 87.97204285 -16.0269165 86.92733765 C-16.10806188 77.36377586 -16.16799398 67.80028407 -16.20724869 58.23645592 C-16.22810857 53.31976327 -16.25639707 48.4033489 -16.30175781 43.48681641 C-16.34527251 38.74057918 -16.36914914 33.99460936 -16.37950897 29.24818802 C-16.38689024 27.43889787 -16.40130427 25.62962209 -16.42292023 23.82044601 C-16.45202938 21.28280963 -16.45595293 18.74627303 -16.45410156 16.20849609 C-16.46848267 15.46330719 -16.48286377 14.71811829 -16.49768066 13.9503479 C-16.45732433 8.82598053 -15.24961016 5.93117857 -12 2 C-7.98141405 -0.6790573 -4.72358279 -0.69610694 0 0 Z " fill="#FCDDCE" transform="translate(264,138)"/>
<path d="M0 0 C3.71168084 0.96768822 5.55692692 2.80821076 8.1875 5.5703125 C9.71259489 8.62050228 9.31725944 11.79580863 9.30102539 15.14111328 C9.30117142 15.92169098 9.30131744 16.70226868 9.3014679 17.50650024 C9.30076986 20.09290319 9.29298257 22.67923459 9.28515625 25.265625 C9.28329168 27.05638591 9.28186796 28.84714733 9.28086853 30.63790894 C9.27704641 35.35615441 9.26721871 40.0743692 9.25616455 44.79260254 C9.24594389 49.60522039 9.2413695 54.41784318 9.23632812 59.23046875 C9.22559619 68.67709683 9.2085234 78.12370212 9.1875 87.5703125 C10.8375 87.5703125 12.4875 87.5703125 14.1875 87.5703125 C14.38472656 86.03697266 14.38472656 86.03697266 14.5859375 84.47265625 C16.65819919 71.02986775 21.39937345 57.76722615 25.25537109 44.75146484 C26.19741073 41.53648934 27.11031141 38.31423827 28.01953125 35.08984375 C28.61668611 33.02068857 29.21432513 30.95167304 29.8125 28.8828125 C30.07716064 27.92117187 30.34182129 26.95953125 30.61450195 25.96875 C32.17119784 20.66790342 33.54510803 16.95103338 38.1875 13.5703125 C41.61924503 12.65875523 44.71698178 12.87506911 48.1875 13.5703125 C51.95287043 16.02932993 52.95468474 17.5842714 53.984375 21.9453125 C54.60228349 28.01831275 52.84610949 33.72140294 51.375 39.5703125 C50.89374774 41.52868673 50.41250111 43.48706235 49.931427 45.44548035 C49.58454294 46.85195346 49.23542538 48.25787732 48.88424683 49.6632843 C47.64949088 54.61855757 46.49013144 59.58723576 45.36531067 64.568573 C44.53384771 68.23301535 43.67724161 71.89133818 42.81680298 75.54907227 C42.39836212 77.35018817 41.98974914 79.1536165 41.59115601 80.95922852 C41.02592748 83.50753599 40.42370713 86.04441814 39.8125 88.58203125 C39.65207718 89.34633957 39.49165436 90.11064789 39.32637024 90.89811707 C38.7890625 93.03393555 38.7890625 93.03393555 37.1875 96.5703125 C32.75731055 99.19090774 28.25919938 100.12199724 23.22265625 101 C21.28036133 101.35771484 21.28036133 101.35771484 19.29882812 101.72265625 C17.27492289 102.08663098 15.25038785 102.44524567 13.22387695 102.79443359 C-0.24929301 105.08583749 -0.24929301 105.08583749 -10.3125 113.6953125 C-12.62502958 118.43393337 -12.56251805 123.43783601 -11.8125 128.5703125 C-10.44742538 132.51244387 -8.76411673 135.61869577 -5.8125 138.5703125 C-6.18519985 141.67400261 -7.4657839 143.82110764 -9.1875 146.3828125 C-12.47408574 151.49316836 -14.89108772 156.48899148 -15.8125 162.5703125 C-13.5025 162.5703125 -11.1925 162.5703125 -8.8125 162.5703125 C-8.73773438 162.0134375 -8.66296875 161.4565625 -8.5859375 160.8828125 C-7.48495736 154.4928101 -5.09635376 150.38828544 -0.8125 145.5703125 C-0.3889624 145.0637915 0.0345752 144.55727051 0.47094727 144.03540039 C2.67453978 142.15462118 4.3430215 141.88942969 7.1875 141.40234375 C8.6415625 141.14614258 8.6415625 141.14614258 10.125 140.88476562 C11.135625 140.71912109 12.14625 140.55347656 13.1875 140.3828125 C14.198125 140.20556641 15.20875 140.02832031 16.25 139.84570312 C23.65612934 138.5703125 23.65612934 138.5703125 27.1875 138.5703125 C27.1875 136.9203125 27.1875 135.2703125 27.1875 133.5703125 C25.50333984 134.0034375 25.50333984 134.0034375 23.78515625 134.4453125 C4.49820275 139.28697319 4.49820275 139.28697319 -2.1875 135.8203125 C-6.57146312 132.06262982 -8.56310201 129.16405161 -9.125 123.3203125 C-8.76047479 118.94600993 -7.82581449 115.81019199 -4.8125 112.5703125 C1.4297945 108.05331884 8.13887941 107.10642074 15.625 105.8203125 C16.81416016 105.59988281 18.00332031 105.37945312 19.22851562 105.15234375 C34.85397529 102.35867467 34.85397529 102.35867467 40.4375 105.2578125 C43.96854735 108.22710232 46.84024911 110.67396253 47.69543457 115.34416199 C47.69861694 116.35102554 47.70179932 117.3578891 47.70507812 118.39526367 C47.71768677 119.54383347 47.73029541 120.69240326 47.74328613 121.8757782 C47.73518921 123.10915421 47.72709229 124.34253021 47.71875 125.61328125 C47.72449036 127.53144402 47.72449036 127.53144402 47.73034668 129.48835754 C47.73623454 132.1943396 47.72771004 134.89979254 47.70898438 137.60571289 C47.68630829 141.04761792 47.69924785 144.48826728 47.72327423 147.93012524 C47.74135614 151.24127283 47.72862222 154.55209817 47.71875 157.86328125 C47.72684692 159.0865361 47.73494385 160.30979095 47.74328613 161.57011414 C47.65049722 170.13859961 46.37904301 177.2754431 41.1875 184.26171875 C40.5275 184.87917969 39.8675 185.49664062 39.1875 186.1328125 C38.5275 186.77347656 37.8675 187.41414062 37.1875 188.07421875 C35.11065167 189.62779865 33.68158379 190.02960293 31.1875 190.5703125 C31.2189209 191.41625977 31.2189209 191.41625977 31.25097656 192.27929688 C31.33498501 194.87611499 31.38642229 197.47264612 31.4375 200.0703125 C31.47101563 200.9571875 31.50453125 201.8440625 31.5390625 202.7578125 C31.62925174 208.89068051 30.72238377 213.47248426 27.1875 218.5703125 C23.20527547 222.26809242 20.73952913 223.68752851 15.37402344 223.74731445 C14.3724823 223.76014969 13.37094116 223.77298492 12.33905029 223.78620911 C11.25263245 223.79359604 10.1662146 223.80098297 9.046875 223.80859375 C7.37446747 223.82070137 7.37446747 223.82070137 5.66827393 223.83305359 C3.30441853 223.84690309 0.94054306 223.85762135 -1.42333984 223.86547852 C-5.03391604 223.88267635 -8.64357325 223.92655436 -12.25390625 223.97070312 C-14.54947243 223.98083115 -16.8450464 223.98934691 -19.140625 223.99609375 C-20.21894592 224.01360184 -21.29726685 224.03110992 -22.40826416 224.04914856 C-28.54222421 224.03145362 -32.15008459 223.68215797 -36.8125 219.5703125 C-40.27001876 215.6358946 -40.93862719 212.399333 -40.91015625 207.24609375 C-40.90693359 206.21806641 -40.90371094 205.19003906 -40.90039062 204.13085938 C-40.89201172 203.05900391 -40.88363281 201.98714844 -40.875 200.8828125 C-40.87048828 199.79935547 -40.86597656 198.71589844 -40.86132812 197.59960938 C-40.84953743 194.92312165 -40.83308063 192.24674473 -40.8125 189.5703125 C-41.34875 189.3434375 -41.885 189.1165625 -42.4375 188.8828125 C-50.57008001 184.38849197 -55.2383302 177.37858619 -57.8125 168.5703125 C-58.97279393 161.82064 -58.72913303 154.95174852 -58.63671875 148.12890625 C-58.63380884 146.18791412 -58.63343288 144.24691672 -58.63545227 142.30592346 C-58.63225718 138.26721633 -58.60555278 134.22961245 -58.56030273 130.19116211 C-58.50329457 125.01938531 -58.49548099 119.8489649 -58.50371075 114.67692471 C-58.50650739 110.68168083 -58.4889149 106.68673897 -58.46457863 102.691576 C-58.454387 100.78383461 -58.44927102 98.87605895 -58.44937706 96.96829033 C-58.44540767 94.30953715 -58.41527383 91.6523595 -58.37768555 88.99389648 C-58.38106934 88.2110025 -58.38445312 87.42810852 -58.38793945 86.62149048 C-58.30932022 82.96066337 -57.92402538 80.75189003 -55.99201965 77.6063385 C-52.97558163 74.78849456 -50.89557343 74.5703125 -46.8125 74.5703125 C-43.90366108 75.79848893 -42.33745098 76.71005848 -40.68798828 79.41308594 C-39.73504672 81.76115945 -39.58115939 83.37647 -39.6171875 85.8984375 C-39.62363281 86.69765625 -39.63007813 87.496875 -39.63671875 88.3203125 C-39.65347656 89.1453125 -39.67023438 89.9703125 -39.6875 90.8203125 C-39.69652344 91.66078125 -39.70554687 92.50125 -39.71484375 93.3671875 C-39.73834183 95.43501854 -39.77421092 97.50270245 -39.8125 99.5703125 C-38.8225 99.5703125 -37.8325 99.5703125 -36.8125 99.5703125 C-36.83868408 98.65741455 -36.86486816 97.7445166 -36.8918457 96.80395508 C-36.97728542 93.40258906 -37.03984999 90.00236992 -37.0871582 86.6003418 C-37.11223644 85.13075725 -37.14630856 83.66129663 -37.18969727 82.19213867 C-37.25065499 80.07439569 -37.27877316 77.95830674 -37.30078125 75.83984375 C-37.32696533 74.56729736 -37.35314941 73.29475098 -37.38012695 71.98364258 C-36.66562722 67.6871175 -35.14135212 66.27518105 -31.8125 63.5703125 C-28.94641871 62.13727186 -26.99949217 62.26387095 -23.8125 62.5703125 C-19.83922873 64.70976626 -17.43613366 66.34943103 -15.8125 70.5703125 C-15.58544922 73.04394531 -15.58544922 73.04394531 -15.6171875 75.7734375 C-15.62363281 76.753125 -15.63007813 77.7328125 -15.63671875 78.7421875 C-15.65347656 79.75796875 -15.67023438 80.77375 -15.6875 81.8203125 C-15.69652344 82.8515625 -15.70554687 83.8828125 -15.71484375 84.9453125 C-15.73837989 87.48721537 -15.77125977 90.0286453 -15.8125 92.5703125 C-14.8225 92.5703125 -13.8325 92.5703125 -12.8125 92.5703125 C-12.82582367 91.52097031 -12.83914734 90.47162811 -12.85287476 89.39048767 C-12.97464237 79.48884294 -13.0645138 69.58735062 -13.12337303 59.6851263 C-13.15465112 54.594535 -13.19705965 49.50454938 -13.26513672 44.41430664 C-13.33045482 39.49945204 -13.36623254 34.58517902 -13.38176346 29.66992378 C-13.39282748 27.79721486 -13.41443365 25.92453684 -13.44688034 24.05207634 C-13.49061083 21.42326624 -13.49642742 18.79684144 -13.49365234 16.16772461 C-13.515224 15.39807877 -13.53679565 14.62843292 -13.559021 13.83546448 C-13.49915865 8.57481454 -12.01000918 5.79363763 -8.54050636 1.87255192 C-5.8224309 -0.17581149 -3.31747539 -0.2577768 0 0 Z " fill="#FDDDCE" transform="translate(399.8125,136.4296875)"/>
<path d="M0 0 C2.87352257 1.91786259 4.50951897 3.87674135 6 7 C6.73143919 12.33221039 6.56718247 17.57875156 6.375 22.9375 C6.34486529 24.39903366 6.31749563 25.8606271 6.29296875 27.32226562 C6.22724219 30.88276374 6.12391851 34.44099692 6 38 C5.24493164 38.13575439 4.48986328 38.27150879 3.71191406 38.41137695 C0.22384786 39.04094466 -3.26306642 39.67669027 -6.75 40.3125 C-8.53083984 40.63250977 -8.53083984 40.63250977 -10.34765625 40.95898438 C-27.8134419 43.26072303 -27.8134419 43.26072303 -40.875 53.6875 C-42.9448322 59.78200593 -43.02621331 65.52288333 -40.1875 71.375 C-38.67715635 74.09477593 -36.89481054 76.53511752 -35 79 C-35.58007812 79.69222656 -35.58007812 79.69222656 -36.171875 80.3984375 C-41.15841463 86.64395496 -44.19660974 93.21506777 -46 101 C-43.69 100.67 -41.38 100.34 -39 100 C-38.82984375 99.41992188 -38.6596875 98.83984375 -38.484375 98.2421875 C-36.93443331 93.24609887 -35.22283398 89.19945033 -32 85 C-31.525625 84.33097656 -31.05125 83.66195312 -30.5625 82.97265625 C-26.49671544 79.84274588 -21.92398 79.53244445 -16.9375 78.75 C-15.93138672 78.57726562 -14.92527344 78.40453125 -13.88867188 78.2265625 C-6.60230655 77 -6.60230655 77 -3 77 C-3.33 75.68 -3.66 74.36 -4 73 C-5.134375 73.2165625 -6.26875 73.433125 -7.4375 73.65625 C-8.9582643 73.93787302 -10.47910162 74.21910196 -12 74.5 C-12.74378906 74.64308594 -13.48757812 74.78617187 -14.25390625 74.93359375 C-26.3530476 77.14300217 -26.3530476 77.14300217 -31.75 74.8125 C-35.8226702 71.5317379 -38.11374936 68.83615374 -39 63.625 C-39.26552661 59.63546264 -38.56442922 57.04566307 -36.59375 53.60546875 C-30.79234089 47.76140222 -23.34642397 46.70348668 -15.5625 45.25 C-13.9218457 44.91935547 -13.9218457 44.91935547 -12.24804688 44.58203125 C4.05373765 41.42178163 4.05373765 41.42178163 11 46 C14.75397857 50.15981409 16.11895078 52.56139582 16.17700195 58.10131836 C16.19625481 59.69954689 16.19625481 59.69954689 16.21589661 61.33006287 C16.22328354 62.48829056 16.23067047 63.64651825 16.23828125 64.83984375 C16.246353 66.03170792 16.25442474 67.22357208 16.26274109 68.45155334 C16.27659734 70.98274272 16.28731257 73.5139509 16.29516602 76.04516602 C16.31229072 79.8905066 16.35615419 83.73496778 16.40039062 87.58007812 C16.41052521 90.04166035 16.41903891 92.50324989 16.42578125 94.96484375 C16.44328934 96.10485336 16.46079742 97.24486298 16.47883606 98.41941833 C16.45594076 106.9798553 15.07461079 114.71235918 10 121.7890625 C9.34 122.39492188 8.68 123.00078125 8 123.625 C7.34 124.25664062 6.68 124.88828125 6 125.5390625 C3.92868439 127.05209382 2.46862982 127.46191584 0 128 C0.0314209 128.84594727 0.0314209 128.84594727 0.06347656 129.70898438 C0.14748501 132.30580249 0.19892229 134.90233362 0.25 137.5 C0.28351563 138.386875 0.31703125 139.27375 0.3515625 140.1875 C0.43764117 146.04084923 -0.00554494 151.43418937 -4 156 C-9.97008476 160.44038686 -15.08025843 160.61440236 -22.375 160.6015625 C-23.4582959 160.61013275 -24.5415918 160.618703 -25.65771484 160.62753296 C-27.94040133 160.63898174 -30.22316076 160.64004795 -32.50585938 160.63134766 C-35.98954973 160.62501898 -39.46985315 160.67201015 -42.953125 160.72265625 C-45.17707907 160.72720204 -47.40104223 160.72860932 -49.625 160.7265625 C-50.66060059 160.74498199 -51.69620117 160.76340149 -52.76318359 160.78237915 C-58.80006295 160.70547583 -62.2700352 159.91335836 -66.67333984 155.67758179 C-69.52685702 152.06926626 -70.23122831 149.35441744 -70.1328125 144.7890625 C-70.13539062 143.79132813 -70.13796875 142.79359375 -70.140625 141.765625 C-70.13024596 139.67943861 -70.09655528 137.59323235 -70.0390625 135.5078125 C-69.97598782 129.82754759 -69.97598782 129.82754759 -72.72021484 125.10791016 C-74.82005098 123.5558871 -74.82005098 123.5558871 -77.03564453 122.23095703 C-79.61948718 120.61180035 -80.88229882 118.7566408 -82.375 116.125 C-82.83648437 115.34382813 -83.29796875 114.56265625 -83.7734375 113.7578125 C-86.62889168 107.3375875 -87.30040015 101.20101969 -87.30639648 94.27661133 C-87.31472 93.44466751 -87.32304352 92.61272369 -87.33161926 91.75556946 C-87.35553491 89.03100798 -87.36446512 86.30668623 -87.37109375 83.58203125 C-87.3800685 81.67730135 -87.38919049 79.77257215 -87.39845276 77.86784363 C-87.41489107 73.8878712 -87.42263443 69.90798244 -87.42553711 65.92797852 C-87.43094016 60.83004395 -87.46872122 55.73289448 -87.51428127 50.63518238 C-87.54401376 46.70693576 -87.55125971 42.77888 -87.55226326 38.85053062 C-87.55646694 36.9706427 -87.56890718 35.09075429 -87.58978081 33.21097755 C-87.61663921 30.5851272 -87.61188903 27.96112265 -87.59936523 25.33520508 C-87.61419952 24.5615863 -87.62903381 23.78796753 -87.64431763 22.99090576 C-87.59036441 19.01815112 -87.14659269 17.18876682 -84.68128967 14.01420593 C-82 12 -82 12 -78.5 11.4375 C-74.23057166 12.12365813 -72.69997383 12.58532721 -70 16 C-68.29578214 23.41019174 -68.88127622 31.44125252 -69 39 C-68.34 39 -67.68 39 -67 39 C-67.02094727 38.18321777 -67.04189453 37.36643555 -67.06347656 36.52490234 C-67.1468513 32.80839445 -67.19872988 29.09208367 -67.25 25.375 C-67.30027344 23.44720703 -67.30027344 23.44720703 -67.3515625 21.48046875 C-67.47408508 9.65704023 -67.47408508 9.65704023 -63 5 C-59.79592697 2.65034645 -56.89725235 2.45438467 -53 3 C-50.07516133 4.82547936 -47.56570795 6.86858411 -46 10 C-45.91550372 11.7404417 -45.89276976 13.48409722 -45.90234375 15.2265625 C-45.90556641 16.2578125 -45.90878906 17.2890625 -45.91210938 18.3515625 C-45.92467773 19.97191406 -45.92467773 19.97191406 -45.9375 21.625 C-45.94201172 22.71296875 -45.94652344 23.8009375 -45.95117188 24.921875 C-45.96298224 27.61463789 -45.97945222 30.30729188 -46 33 C-45.01 33 -44.02 33 -43 33 C-43.02094727 32.30438965 -43.04189453 31.6087793 -43.06347656 30.89208984 C-43.1469698 27.71987542 -43.19876529 24.54789269 -43.25 21.375 C-43.30027344 19.73337891 -43.30027344 19.73337891 -43.3515625 18.05859375 C-43.42841019 11.71865918 -43.34435823 7.78040906 -39 3 C-35.79214982 0.64757653 -32.90350748 0.5315791 -29 1 C-25.01926742 3.14347139 -22.65164667 4.78690942 -21 9 C-20.77294922 11.19824219 -20.77294922 11.19824219 -20.8046875 13.546875 C-20.81113281 14.39121094 -20.81757813 15.23554688 -20.82421875 16.10546875 C-20.84935547 17.41451172 -20.84935547 17.41451172 -20.875 18.75 C-20.88402344 19.63816406 -20.89304687 20.52632812 -20.90234375 21.44140625 C-20.92585423 23.62788058 -20.95871501 25.81380094 -21 28 C-20.01 28 -19.02 28 -18 28 C-18.0314209 27.13834229 -18.0314209 27.13834229 -18.06347656 26.25927734 C-18.14713764 23.63136626 -18.1988146 21.0037361 -18.25 18.375 C-18.28351563 17.47136719 -18.31703125 16.56773437 -18.3515625 15.63671875 C-18.43567548 9.87497969 -17.9033356 6.5502973 -14 2 C-9.92758417 -1.60699688 -4.96772273 -2.10455249 0 0 Z " fill="#FDDDCE" transform="translate(154,200)"/>
<path d="M0 0 C3.53104735 2.96928982 6.40274911 5.41615003 7.25793457 10.08634949 C7.26111694 11.09321304 7.26429932 12.1000766 7.26757812 13.13745117 C7.28018677 14.28602097 7.29279541 15.43459076 7.30578613 16.6179657 C7.29768921 17.85134171 7.28959229 19.08471771 7.28125 20.35546875 C7.2850769 21.63424393 7.28890381 22.9130191 7.29284668 24.23054504 C7.29873454 26.9365271 7.29021004 29.64198004 7.27148438 32.34790039 C7.24880829 35.78980542 7.26174785 39.23045478 7.28577423 42.67231274 C7.30385614 45.98346033 7.29112222 49.29428567 7.28125 52.60546875 C7.28934692 53.8287236 7.29744385 55.05197845 7.30578613 56.31230164 C7.21299722 64.88078711 5.94154301 72.0176306 0.75 79.00390625 C0.09 79.62136719 -0.57 80.23882812 -1.25 80.875 C-1.91 81.51566406 -2.57 82.15632813 -3.25 82.81640625 C-5.32684833 84.36998615 -6.75591621 84.77179043 -9.25 85.3125 C-9.22905273 85.87646484 -9.20810547 86.44042969 -9.18652344 87.02148438 C-9.10251499 89.61830249 -9.05107771 92.21483362 -9 94.8125 C-8.94972656 96.1428125 -8.94972656 96.1428125 -8.8984375 97.5 C-8.80824826 103.63286801 -9.71511623 108.21467176 -13.25 113.3125 C-17.42008886 117.18472537 -19.86232193 118.44100373 -25.4765625 118.41015625 C-27.0234375 118.40532227 -27.0234375 118.40532227 -28.6015625 118.40039062 C-30.22191406 118.38782227 -30.22191406 118.38782227 -31.875 118.375 C-33.50695312 118.36823242 -33.50695312 118.36823242 -35.171875 118.36132812 C-37.86463789 118.34951776 -40.55729188 118.33304778 -43.25 118.3125 C-43.52000797 108.63796837 -43.7569652 98.96335087 -43.95202446 89.28701591 C-44.04363696 84.79362314 -44.14651984 80.3010846 -44.27539062 75.80859375 C-44.39939511 71.47115403 -44.49349165 67.1339916 -44.56708145 62.79541397 C-44.60033891 61.14221555 -44.64428019 59.48919568 -44.69918442 57.83657455 C-44.77440947 55.5167627 -44.8112249 53.19921396 -44.83935547 50.87841797 C-44.87044403 49.55937469 -44.90153259 48.24033142 -44.93356323 46.88131714 C-44.04626096 42.24879828 -41.98012088 40.0757812 -38.25 37.3125 C-35.59692383 36.26416016 -35.59692383 36.26416016 -32.95703125 35.8515625 C-31.99732422 35.69042969 -31.03761719 35.52929688 -30.04882812 35.36328125 C-29.06333984 35.22277344 -28.07785156 35.08226562 -27.0625 34.9375 C-26.06541016 34.77378906 -25.06832031 34.61007812 -24.04101562 34.44140625 C-20.40643441 33.85810866 -16.93516133 33.3125 -13.25 33.3125 C-13.25 31.6625 -13.25 30.0125 -13.25 28.3125 C-14.37277344 28.60125 -15.49554688 28.89 -16.65234375 29.1875 C-35.93929725 34.02916069 -35.93929725 34.02916069 -42.625 30.5625 C-47.00896312 26.80481732 -49.00060201 23.90623911 -49.5625 18.0625 C-49.19797479 13.68819743 -48.26331449 10.55237949 -45.25 7.3125 C-39.0077055 2.79550634 -32.29862059 1.84860824 -24.8125 0.5625 C-23.62333984 0.34207031 -22.43417969 0.12164062 -21.20898438 -0.10546875 C-5.58352471 -2.89913783 -5.58352471 -2.89913783 0 0 Z " fill="#FDCCBD" transform="translate(440.25,241.6875)"/>
<path d="M0 0 C3.07469523 1.70251719 5.40613254 3.81226508 7 7 C7.12320215 9.33551583 7.18038664 11.67459234 7.20874023 14.01318359 C7.22341591 15.09661545 7.22341591 15.09661545 7.23838806 16.20193481 C7.26837882 18.60075036 7.28974959 20.99950938 7.30859375 23.3984375 C7.31516558 24.22010029 7.3217374 25.04176308 7.32850838 25.88832474 C7.36113422 30.24633308 7.38556492 34.60431684 7.4050293 38.96240234 C7.42276575 42.55326552 7.45745577 46.14333199 7.50756836 49.73388672 C7.56815808 54.08054043 7.5985594 58.42646175 7.60820198 62.77351761 C7.61670089 64.4215916 7.63537965 66.06964902 7.6649456 67.71747971 C7.85400173 78.86401506 7.05245179 88.39736933 -0.9077301 97.08114624 C-3.84457211 99.8283016 -6.0913828 101.09518083 -10 102 C-9.98428955 102.63502441 -9.9685791 103.27004883 -9.95239258 103.92431641 C-9.8897141 106.8244523 -9.85090583 109.72444524 -9.8125 112.625 C-9.78736328 113.62402344 -9.76222656 114.62304688 -9.73632812 115.65234375 C-9.68128923 121.19292606 -9.78534193 125.25418963 -13 130 C-17.49315051 134.05479436 -19.89652035 135.12671592 -25.8828125 135.09765625 C-27.04941406 135.09443359 -28.21601563 135.09121094 -29.41796875 135.08789062 C-30.64128906 135.07951172 -31.86460937 135.07113281 -33.125 135.0625 C-34.35605469 135.05798828 -35.58710938 135.05347656 -36.85546875 135.04882812 C-39.90369392 135.0370133 -42.95182314 135.02054028 -46 135 C-46.01030746 134.16506012 -46.02061493 133.33012024 -46.03123474 132.46987915 C-46.12909975 124.61201027 -46.23159839 116.75421858 -46.33933926 108.89647865 C-46.3945691 104.85646949 -46.44798919 100.81645309 -46.49731445 96.77636719 C-46.54495713 92.87949595 -46.59729989 88.98271391 -46.65294075 85.08594894 C-46.67336475 83.59718412 -46.69207776 82.10839484 -46.70907402 80.61958694 C-46.73311711 78.53878157 -46.76317159 76.45814525 -46.79467773 74.37744141 C-46.81022202 73.19163483 -46.8257663 72.00582825 -46.84178162 70.78408813 C-46.81329649 68.04361935 -46.81329649 68.04361935 -48 66 C-44.84579734 57.53708466 -38.61700109 51.56451997 -30.625 47.625 C-27.29006003 46.29893509 -24.2829158 45.70054512 -20.7109375 45.3984375 C-19.8245459 45.32028809 -18.9381543 45.24213867 -18.02490234 45.16162109 C-17.35668457 45.10828613 -16.6884668 45.05495117 -16 45 C-16.02618408 43.88028809 -16.05236816 42.76057617 -16.0793457 41.60693359 C-16.17012872 37.43623996 -16.22735061 33.26563291 -16.2746582 29.09423828 C-16.29973866 27.29200534 -16.33381188 25.48987349 -16.37719727 23.68798828 C-16.4381375 21.09121723 -16.46627346 18.49579535 -16.48828125 15.8984375 C-16.51408768 15.0982016 -16.5398941 14.2979657 -16.56648254 13.47348022 C-16.56853707 9.33708808 -16.24317292 6.77952912 -13.59448242 3.50634766 C-9.39947675 -0.54615336 -5.67843726 -0.8765373 0 0 Z " fill="#FECCBD" transform="translate(302,225)"/>
<path d="M0 0 C3.75397857 4.15981409 5.11895078 6.56139582 5.17700195 12.10131836 C5.19625481 13.69954689 5.19625481 13.69954689 5.21589661 15.33006287 C5.22328354 16.48829056 5.23067047 17.64651825 5.23828125 18.83984375 C5.246353 20.03170792 5.25442474 21.22357208 5.26274109 22.45155334 C5.27659734 24.98274272 5.28731257 27.5139509 5.29516602 30.04516602 C5.31229072 33.8905066 5.35615419 37.73496778 5.40039062 41.58007812 C5.41052521 44.04166035 5.41903891 46.50324989 5.42578125 48.96484375 C5.44328934 50.10485336 5.46079742 51.24486298 5.47883606 52.41941833 C5.45594076 60.9798553 4.07461079 68.71235918 -1 75.7890625 C-1.66 76.39492188 -2.32 77.00078125 -3 77.625 C-3.66 78.25664062 -4.32 78.88828125 -5 79.5390625 C-7.07131561 81.05209382 -8.53137018 81.46191584 -11 82 C-10.97905273 82.56396484 -10.95810547 83.12792969 -10.93652344 83.70898438 C-10.85251499 86.30580249 -10.80107771 88.90233362 -10.75 91.5 C-10.69972656 92.8303125 -10.69972656 92.8303125 -10.6484375 94.1875 C-10.56235883 100.04084923 -11.00554494 105.43418937 -15 110 C-20.91470719 114.40245728 -25.71815613 114.50660006 -32.9375 114.25 C-33.90751953 114.23195313 -34.87753906 114.21390625 -35.87695312 114.1953125 C-38.25234894 114.14850667 -40.62563844 114.08296385 -43 114 C-43.24667715 104.4384615 -43.4659065 94.87680073 -43.65021229 85.31385517 C-43.73665589 80.87326481 -43.83250735 76.43329542 -43.94995117 71.9934082 C-44.06296609 67.70780862 -44.15114751 63.42234812 -44.22220421 59.13585472 C-44.25364752 57.50142206 -44.29400386 55.86713555 -44.34345436 54.23314857 C-44.41126148 51.94204877 -44.44720616 49.652474 -44.47583008 47.3605957 C-44.50469803 46.05709671 -44.53356598 44.75359772 -44.56330872 43.41059875 C-43.85221045 39.10519608 -42.36224043 37.68365693 -39 35 C-36.46044922 34.06518555 -36.46044922 34.06518555 -33.8046875 33.63671875 C-32.84175781 33.47236328 -31.87882812 33.30800781 -30.88671875 33.13867188 C-29.89285156 32.98978516 -28.89898437 32.84089844 -27.875 32.6875 C-26.87339844 32.51927734 -25.87179688 32.35105469 -24.83984375 32.17773438 C-17.67729592 31 -17.67729592 31 -14 31 C-14.495 29.02 -14.495 29.02 -15 27 C-16.134375 27.2165625 -17.26875 27.433125 -18.4375 27.65625 C-19.9582643 27.93787302 -21.47910162 28.21910196 -23 28.5 C-23.74378906 28.64308594 -24.48757812 28.78617187 -25.25390625 28.93359375 C-37.3530476 31.14300217 -37.3530476 31.14300217 -42.75 28.8125 C-46.8226702 25.5317379 -49.11374936 22.83615374 -50 17.625 C-50.26552661 13.63546264 -49.56442922 11.04566307 -47.59375 7.60546875 C-41.79234089 1.76140222 -34.34642397 0.70348668 -26.5625 -0.75 C-25.46873047 -0.97042969 -24.37496094 -1.19085938 -23.24804688 -1.41796875 C-6.94626235 -4.57821837 -6.94626235 -4.57821837 0 0 Z " fill="#FDCCBD" transform="translate(165,246)"/>
<path d="M0 0 C8 0 8 0 10.9375 1.875 C14.49803846 5.54343356 14.13743502 8.61419776 14.11352539 13.47900391 C14.11367142 14.24982803 14.11381744 15.02065216 14.1139679 15.81483459 C14.11326989 18.36877229 14.10548275 20.92263751 14.09765625 23.4765625 C14.09579167 25.24490316 14.09436796 27.01324433 14.09336853 28.78158569 C14.0895465 33.44064759 14.07971888 38.09967842 14.06866455 42.75872803 C14.05844369 47.51102274 14.05386946 52.26332247 14.04882812 57.015625 C14.03809634 66.34376367 14.02102367 75.67187925 14 85 C15.65 85 17.3 85 19 85 C18.99111755 84.0965535 18.98223511 83.19310699 18.9730835 82.26228333 C18.89289613 73.7432457 18.83201449 65.22433504 18.79275131 56.7050066 C18.77188694 52.32522784 18.74359065 47.94576123 18.69824219 43.56616211 C18.65474288 39.33863449 18.63085424 35.11140688 18.62049103 30.88367271 C18.61310694 29.27171799 18.59868733 27.65977947 18.57707977 26.04795265 C18.54799022 23.78787535 18.54404613 21.52903358 18.54589844 19.26879883 C18.53701599 17.98306473 18.52813354 16.69733063 18.51898193 15.37263489 C19.08213947 11.42408307 20.23684865 9.81464303 23 7 C26.26934278 4.71146006 29.0698152 4.52837782 33 5 C36.96174821 7.13324903 39.43285413 8.76193246 41 13 C41.24050903 16.06256104 41.24050903 16.06256104 41.22705078 19.69628906 C41.22734283 20.36011597 41.22763489 21.02394287 41.22793579 21.70788574 C41.22654658 23.89393351 41.21100503 26.07963704 41.1953125 28.265625 C41.19158091 29.78448297 41.18873463 31.30334335 41.18673706 32.82220459 C41.1791121 36.81382937 41.15947344 40.80530789 41.1373291 44.796875 C41.11684614 48.87237571 41.10773011 52.94790012 41.09765625 57.0234375 C41.07622641 65.01569201 41.04210426 73.00782779 41 81 C40.31945557 81.10376953 39.63891113 81.20753906 38.93774414 81.31445312 C38.04176514 81.46849609 37.14578613 81.62253906 36.22265625 81.78125 C35.33586182 81.92626953 34.44906738 82.07128906 33.53540039 82.22070312 C29.37938255 83.49812334 27.27741727 86.4368084 25 90 C23.4725361 93.0549278 23.76008168 96.2763314 23.68359375 99.6328125 C23.66281265 100.38464813 23.64203156 101.13648376 23.62062073 101.91110229 C23.55517295 104.31564085 23.49626262 106.72028967 23.4375 109.125 C23.39431023 110.75391771 23.35069579 112.38282422 23.30664062 114.01171875 C23.19949649 118.00769915 23.09821567 122.00379059 23 126 C22.3412085 126.18103271 21.68241699 126.36206543 21.00366211 126.54858398 C16.15168895 127.9328927 11.84252882 129.31456688 7.5625 132.0625 C6.75941406 132.56910156 5.95632813 133.07570313 5.12890625 133.59765625 C3.41560925 134.7262317 1.70703572 135.86197619 0 137 C0 91.79 0 46.58 0 0 Z " fill="#FCCCBD" transform="translate(256,138)"/>
<path d="M0 0 C7 1 7 1 9.90202332 3.5609436 C12.50764405 7.15370471 12.67461358 10.70120433 12.56762695 15.02490234 C12.56872215 16.19664505 12.56872215 16.19664505 12.56983948 17.39205933 C12.56637398 19.95740785 12.52756513 22.52090879 12.48828125 25.0859375 C12.47894936 26.87097176 12.47183502 28.65601888 12.46684265 30.44107056 C12.44780234 35.12672627 12.39872754 39.81160023 12.34332275 44.49694824 C12.29206595 49.28301418 12.26931491 54.06920712 12.24414062 58.85546875 C12.19060559 68.2373216 12.10532907 77.61859565 12 87 C13.65 87 15.3 87 17 87 C17.19722656 85.46666016 17.19722656 85.46666016 17.3984375 83.90234375 C19.47069919 70.45955525 24.21187345 57.19691365 28.06787109 44.18115234 C29.00991073 40.96617684 29.92281141 37.74392577 30.83203125 34.51953125 C31.42918611 32.45037607 32.02682513 30.38136054 32.625 28.3125 C32.88966064 27.35085937 33.15432129 26.38921875 33.42700195 25.3984375 C34.98369784 20.09759092 36.35760803 16.38072088 41 13 C44.43174503 12.08844273 47.52948178 12.30475661 51 13 C54.76537043 15.45901743 55.76718474 17.0139589 56.796875 21.375 C57.41478349 27.44800025 55.65860949 33.15109044 54.1875 39 C53.70624774 40.95837423 53.22500111 42.91674985 52.743927 44.87516785 C52.39704294 46.28164096 52.04792538 47.68756482 51.69674683 49.0929718 C50.46199088 54.04824507 49.30263144 59.01692326 48.17781067 63.9982605 C47.34634771 67.66270285 46.48974161 71.32102568 45.62930298 74.97875977 C45.21086212 76.77987567 44.80224914 78.583304 44.40365601 80.38891602 C43.83842748 82.93722349 43.23620713 85.47410564 42.625 88.01171875 C42.46457718 88.77602707 42.30415436 89.54033539 42.13887024 90.32780457 C41.6015625 92.46362305 41.6015625 92.46362305 40 96 C35.53695362 98.63685449 30.92055311 99.60411228 25.859375 100.5703125 C25.21051331 100.69687225 24.56165161 100.82343201 23.89312744 100.9538269 C21.8467642 101.3516264 19.79857651 101.7387771 17.75 102.125 C15.68759572 102.52043062 13.62564378 102.91808679 11.56402588 103.31759644 C9.7046005 103.67691116 7.84402664 104.0302675 5.98339844 104.38330078 C2.9655547 104.94612724 2.9655547 104.94612724 0 106 C0 71.02 0 36.04 0 0 Z " fill="#FBCCBD" transform="translate(397,137)"/>
<path d="M0 0 C2.87352257 1.91786259 4.50951897 3.87674135 6 7 C6.73143919 12.33221039 6.56718247 17.57875156 6.375 22.9375 C6.34486529 24.39903366 6.31749563 25.8606271 6.29296875 27.32226562 C6.22724219 30.88276374 6.12391851 34.44099692 6 38 C5.21874756 38.14099121 4.43749512 38.28198242 3.63256836 38.42724609 C0.0668763 39.07286187 -3.49780886 39.72388145 -7.0625 40.375 C-8.29162109 40.59671875 -9.52074219 40.8184375 -10.78710938 41.046875 C-16.63270957 42.11830576 -22.3099008 43.29530544 -28 45 C-32.985792 45.42980965 -36.0925281 45.25622658 -40 42 C-43.81824972 35.55247892 -43.48028846 29.80515624 -43.4375 22.5 C-43.45748047 21.28957031 -43.47746094 20.07914063 -43.49804688 18.83203125 C-43.49198935 7.81944277 -43.49198935 7.81944277 -39 3 C-35.79214982 0.64757653 -32.90350748 0.5315791 -29 1 C-25.01926742 3.14347139 -22.65164667 4.78690942 -21 9 C-20.77294922 11.19824219 -20.77294922 11.19824219 -20.8046875 13.546875 C-20.81113281 14.39121094 -20.81757813 15.23554688 -20.82421875 16.10546875 C-20.84097656 16.97816406 -20.85773438 17.85085937 -20.875 18.75 C-20.88402344 19.63816406 -20.89304688 20.52632812 -20.90234375 21.44140625 C-20.92585423 23.62788058 -20.95871501 25.81380094 -21 28 C-20.01 28 -19.02 28 -18 28 C-18.02094727 27.42556152 -18.04189453 26.85112305 -18.06347656 26.25927734 C-18.14713764 23.63136626 -18.1988146 21.0037361 -18.25 18.375 C-18.28351563 17.47136719 -18.31703125 16.56773437 -18.3515625 15.63671875 C-18.43567548 9.87497969 -17.9033356 6.5502973 -14 2 C-9.92758417 -1.60699688 -4.96772273 -2.10455249 0 0 Z " fill="#FCBDAA" transform="translate(154,200)"/>
<path d="M0 0 C6.43691064 5.41285667 6.43691064 5.41285667 7.09765625 9.421875 C7.2900722 14.40795792 6.66593802 18.13298884 3.75 22.3125 C-1.92504975 27.25972708 -8.85205364 28.09875325 -16.0625 29.5625 C-17.29548828 29.830625 -18.52847656 30.09875 -19.79882812 30.375 C-36.31868743 33.83243985 -36.31868743 33.83243985 -42.625 30.5625 C-47.00896312 26.80481732 -49.00060201 23.90623911 -49.5625 18.0625 C-49.19797479 13.68819743 -48.26331449 10.55237949 -45.25 7.3125 C-39.0077055 2.79550634 -32.29862059 1.84860824 -24.8125 0.5625 C-23.62333984 0.34207031 -22.43417969 0.12164062 -21.20898438 -0.10546875 C-5.58352471 -2.89913783 -5.58352471 -2.89913783 0 0 Z " fill="#FCBDAA" transform="translate(440.25,241.6875)"/>
<path d="M0 0 C3.08272601 3.41599369 4.89457945 5.62953286 5.25 10.25 C4.90901807 15.36472892 3.44113985 18.37290662 0.0625 22.1875 C-7.01898565 26.37858334 -15.73985886 27.20469329 -23.75 28.6875 C-24.44641602 28.81906494 -25.14283203 28.95062988 -25.86035156 29.08618164 C-31.45064446 30.0706399 -37.4169406 31.11541201 -42.75 28.8125 C-46.8226702 25.5317379 -49.11374936 22.83615374 -50 17.625 C-50.26552661 13.63546264 -49.56442922 11.04566307 -47.59375 7.60546875 C-41.79234089 1.76140222 -34.34642397 0.70348668 -26.5625 -0.75 C-25.46873047 -0.97042969 -24.37496094 -1.19085938 -23.24804688 -1.41796875 C-6.94626235 -4.57821837 -6.94626235 -4.57821837 0 0 Z " fill="#FCBDAA" transform="translate(165,246)"/>
<path d="M0 0 C3.97327127 2.13945376 6.37636634 3.77911853 8 8 C8.22705078 10.47363281 8.22705078 10.47363281 8.1953125 13.203125 C8.18886719 14.1828125 8.18242187 15.1625 8.17578125 16.171875 C8.15902344 17.18765625 8.14226562 18.2034375 8.125 19.25 C8.11597656 20.28125 8.10695313 21.3125 8.09765625 22.375 C8.07412011 24.91690287 8.04124023 27.4583328 8 30 C8.99 30.33 9.98 30.66 11 31 C10.01 31 9.02 31 8 31 C8.05220703 32.17755859 8.05220703 32.17755859 8.10546875 33.37890625 C8.26913992 39.73090642 8.25006599 44.46285053 5 50 C0.98141405 52.6790573 -2.27641721 52.69610694 -7 52 C-9.87029869 50.20606332 -11.49131638 49.01736724 -13 46 C-13.28544013 40.34720147 -13.31378534 34.69325965 -13.35009766 29.03393555 C-13.36665332 27.14155781 -13.39393835 25.2492425 -13.43212891 23.35717773 C-13.48694472 20.62711186 -13.50877818 17.8985111 -13.5234375 15.16796875 C-13.54610687 14.32509811 -13.56877625 13.48222748 -13.59213257 12.61381531 C-13.57635038 8.21702457 -13.43319775 6.54165093 -10.59228516 2.98950195 C-6.79995439 0.0790006 -4.79634382 -0.46118691 0 0 Z " fill="#FCCCBE" transform="translate(376,199)"/>
<path d="M0 0 C0.66 0 1.32 0 2 0 C3.26953125 1.29296875 3.26953125 1.29296875 4.8125 3.1875 C7.19359954 6.04075787 9.6610581 8.66057319 12.38671875 11.1796875 C13.27750122 12.01657104 13.27750122 12.01657104 14.1862793 12.87036133 C15.38197316 13.98590234 16.59296843 15.08529559 17.81958008 16.16674805 C19.44916486 17.70589241 20.79446897 19.10973417 22 21 C22.07421875 24.2109375 22.07421875 24.2109375 21 28 C20.67056396 29.21175903 20.67056396 29.21175903 20.33447266 30.44799805 C19.53416525 33.33268819 18.67798629 36.19671712 17.8125 39.0625 C14.58699066 49.9166614 11.56306532 60.81443687 8.61474609 71.74658203 C7.77102124 74.83934629 6.8900686 77.92027907 6 81 C4.35 81 2.7 81 1 81 C0.67 54.27 0.34 27.54 0 0 Z " fill="#02A0AA" transform="translate(408,143)"/>
<path d="M0 0 C2.92483867 1.82547936 5.43429205 3.86858411 7 7 C7.13550876 9.70120365 7.21269102 12.37536415 7.23828125 15.078125 C7.246353 15.88231873 7.25442474 16.68651245 7.26274109 17.51507568 C7.27658298 19.2198267 7.28730467 20.92460545 7.29516602 22.62939453 C7.3123421 25.22612744 7.35622084 27.82157476 7.40039062 30.41796875 C7.41052105 32.07551148 7.41903606 33.73306503 7.42578125 35.390625 C7.44328934 36.16271301 7.46079742 36.93480103 7.47883606 37.73028564 C7.45810652 42.93015421 6.4329109 45.87012232 3 50 C-0.20173254 51.60086627 -3.52577059 51.49917089 -7 51 C-9.8100346 49.20636089 -11.50940468 47.98119065 -13 45 C-14.12067668 37.28426196 -14.25143568 29.60023597 -14.3125 21.8125 C-14.34150391 20.56791016 -14.37050781 19.32332031 -14.40039062 18.04101562 C-14.47903867 6.74594601 -14.47903867 6.74594601 -10 2 C-6.79592697 -0.34965355 -3.89725235 -0.54561533 0 0 Z " fill="#FACCBD" transform="translate(101,203)"/>
<path d="M0 0 C2.87352257 1.91786259 4.50951897 3.87674135 6 7 C6.73143919 12.33221039 6.56718247 17.57875156 6.375 22.9375 C6.34486529 24.39903366 6.31749563 25.8606271 6.29296875 27.32226562 C6.22724219 30.88276374 6.12391851 34.44099692 6 38 C2.73172393 38.70005804 -0.53992176 39.38286244 -3.8125 40.0625 C-4.74126953 40.26166016 -5.67003906 40.46082031 -6.62695312 40.66601562 C-7.9659668 40.94155273 -7.9659668 40.94155273 -9.33203125 41.22265625 C-10.56530151 41.48187866 -10.56530151 41.48187866 -11.82348633 41.74633789 C-14 42 -14 42 -17 41 C-18.69185697 35.9244291 -18.26458565 30.60125596 -18.29516602 25.28588867 C-18.30667849 23.89223064 -18.32711929 22.49861646 -18.35668945 21.10522461 C-18.39955813 19.08417011 -18.41555979 17.06442256 -18.42578125 15.04296875 C-18.44036377 13.83664795 -18.45494629 12.63032715 -18.4699707 11.38745117 C-17.78285131 6.43483739 -15.50989451 3.33733514 -11.8125 0.0625 C-7.76850378 -1.46523191 -4.02116639 -1.70354832 0 0 Z " fill="#FABDAA" transform="translate(154,200)"/>
<path d="M0 0 C2.3181362 1.89111111 3.66914015 3.33828031 5 6 C5.25818446 10.20929703 5.27105373 14.42246584 5.29516602 18.63867188 C5.31232382 20.72854048 5.35620219 22.81680334 5.40039062 24.90625 C5.41052311 26.24478007 5.41903748 27.58332356 5.42578125 28.921875 C5.44036377 30.13456055 5.45494629 31.34724609 5.4699707 32.59667969 C4.90824655 36.66443796 3.54736123 38.8192809 1 42 C-1.85324437 43.42662219 -3.83454549 43.31033868 -7 43 C-9.69990662 41.20006226 -11.5418865 39.916227 -13 37 C-13.2588935 32.48739695 -13.27104714 27.97099443 -13.29516602 23.4519043 C-13.31235651 21.20624427 -13.35624 18.96206567 -13.40039062 16.71679688 C-13.41052001 15.28386497 -13.41903535 13.85092057 -13.42578125 12.41796875 C-13.44036377 11.11625732 -13.45494629 9.8145459 -13.4699707 8.47338867 C-12.92567643 4.45070055 -11.83894204 2.83960264 -9 0 C-5.81452856 -1.59273572 -3.39809153 -0.76164121 0 0 Z " fill="#FBCCBD" transform="translate(355,212)"/>
<path d="M0 0 C4.26942834 0.68615813 5.80002617 1.14782721 8.5 4.5625 C9.3412516 8.22038657 9.43800778 11.81912353 9.5 15.5625 C9.52707031 16.56410156 9.55414063 17.56570312 9.58203125 18.59765625 C9.62452511 21.59154195 9.5838001 24.56963941 9.5 27.5625 C9.48324219 28.48804688 9.46648437 29.41359375 9.44921875 30.3671875 C9.22373056 34.70944582 8.86441754 37.02659186 6.375 40.6875 C2.67163794 43.10273613 0.83908848 43.41482095 -3.5 42.5625 C-7.20968473 39.69641705 -8.30367613 37.92107317 -8.97949219 33.24438477 C-9.14065995 29.86220675 -9.20251133 26.52331453 -9.15185547 23.13989258 C-9.1250122 21.00097235 -9.15166828 18.86727649 -9.18359375 16.72851562 C-9.18029017 15.35936351 -9.17388499 13.99021462 -9.1640625 12.62109375 C-9.15842285 11.38673584 -9.1527832 10.15237793 -9.14697266 8.88061523 C-8.0960414 3.49072593 -5.38511981 0.86546568 0 0 Z " fill="#FACCBE" transform="translate(75.5,211.4375)"/>
<path d="M0 0 C-0.99 0.33 -1.98 0.66 -3 1 C-3 15.19 -3 29.38 -3 44 C-9 43 -9 43 -11.3125 40.625 C-15.0756986 34.77113551 -14.25976581 28.42692951 -14.3125 21.6875 C-14.34150391 20.46353516 -14.37050781 19.23957031 -14.40039062 17.97851562 C-14.47967164 6.76330076 -14.47967164 6.76330076 -10 2 C-6.78542734 -0.35735328 -3.90339153 -0.17742689 0 0 Z " fill="#FACCBD" transform="translate(125,201)"/>
<path d="M0 0 C6 5 6 5 6.68356323 8.41059875 C6.65247467 9.71409775 6.62138611 11.01759674 6.58935547 12.3605957 C6.58047806 13.08309006 6.57160065 13.80558441 6.56245422 14.54997253 C6.5261237 16.92677417 6.4469378 19.30007372 6.3671875 21.67578125 C6.33354208 23.32768151 6.30258408 24.97963852 6.27420044 26.63163757 C6.19243854 30.97100103 6.07425785 35.3086323 5.94842529 39.64691162 C5.82638775 44.07729029 5.73887406 48.5083367 5.6484375 52.93945312 C5.46604012 61.62732602 5.24515607 70.31367258 5 79 C3.35 79 1.7 79 0 79 C0 52.93 0 26.86 0 0 Z " fill="#27A7AD" transform="translate(270,144)"/>
<path d="M0 0 C1.485 0.99 1.485 0.99 3 2 C3.36076355 4.63223267 3.36076355 4.63223267 3.34057617 8.01025391 C3.34034958 9.27141022 3.34012299 10.53256653 3.33988953 11.8319397 C3.32456844 13.21348421 3.30892044 14.59502513 3.29296875 15.9765625 C3.28737433 17.38617503 3.2831035 18.79579338 3.28010559 20.20541382 C3.26864454 23.91768464 3.23916704 27.629604 3.20599365 31.34173584 C3.1753196 35.12881719 3.16160599 38.91595526 3.14648438 42.703125 C3.11429811 50.135577 3.0630871 57.56773928 3 65 C2.01 65 1.02 65 0 65 C0 43.55 0 22.1 0 0 Z " fill="#00A0AA" transform="translate(245,163)"/>
<path d="M0 0 C1.485 0.99 1.485 0.99 3 2 C3.36076355 3.98684692 3.36076355 3.98684692 3.34057617 6.44970703 C3.34034958 7.37051056 3.34012299 8.29131409 3.33988953 9.24002075 C3.32440567 10.23589203 3.30892181 11.23176331 3.29296875 12.2578125 C3.28872391 13.27600067 3.28447906 14.29418884 3.28010559 15.3432312 C3.26327579 18.60408673 3.22561546 21.86433041 3.1875 25.125 C3.17245874 27.33202234 3.15876937 29.53905434 3.14648438 31.74609375 C3.1133583 37.16427223 3.06311653 42.58209242 3 48 C2.01 48 1.02 48 0 48 C0 32.16 0 16.32 0 0 Z " fill="#00A0AA" transform="translate(221,186)"/>
<path d="M0 0 C0.66 0.33 1.32 0.66 2 1 C1.34 1.66 0.68 2.32 0 3 C-0.37051993 5.3245339 -0.37051993 5.3245339 -0.4140625 8.0078125 C-0.45273438 8.99394531 -0.49140625 9.98007812 -0.53125 10.99609375 C-0.5621875 12.02863281 -0.593125 13.06117188 -0.625 14.125 C-0.66367188 15.16527344 -0.70234375 16.20554687 -0.7421875 17.27734375 C-0.83664766 19.85138311 -0.92221214 22.42541155 -1 25 C-7.03515625 20.34179688 -7.03515625 20.34179688 -8 16 C-8.06724994 11.38497279 -7.63236195 7.99070039 -5.125 4.0625 C-3 2 -3 2 0 0 Z " fill="#F1C9BB" transform="translate(123,249)"/>
<path d="M0 0 C0.66 0 1.32 0 2 0 C2 7.26 2 14.52 2 22 C-3.78723404 16.21276596 -3.78723404 16.21276596 -4.3125 10.75 C-3.92352533 6.08230392 -2.53532474 3.882216 0 0 Z " fill="#F0CABC" transform="translate(395,249)"/>
<path d="M0 0 C0.66 0 1.32 0 2 0 C4.16926659 3.25389988 4.24080049 4.13395957 4.1953125 7.88671875 C4.18886719 8.82451172 4.18242188 9.76230469 4.17578125 10.72851562 C4.15902344 11.70498047 4.14226562 12.68144531 4.125 13.6875 C4.11597656 14.67556641 4.10695313 15.66363281 4.09765625 16.68164062 C4.0740843 19.12133765 4.04118022 21.56054697 4 24 C3.01 24 2.02 24 1 24 C0.67 16.08 0.34 8.16 0 0 Z " fill="#0BA2AB" transform="translate(107,209)"/>
<path d="M0 0 C1.98 0.99 1.98 0.99 4 2 C4 8.93 4 15.86 4 23 C3.01 23 2.02 23 1 23 C0.67 15.41 0.34 7.82 0 0 Z " fill="#00A0AA" transform="translate(383,206)"/>
<path d="M0 0 C0.99 0 1.98 0 3 0 C3.06058594 0.68707031 3.12117187 1.37414062 3.18359375 2.08203125 C3.26738281 2.98308594 3.35117188 3.88414062 3.4375 4.8125 C3.51871094 5.70582031 3.59992188 6.59914062 3.68359375 7.51953125 C3.93489767 10.12743559 3.93489767 10.12743559 5 13 C0.56923077 15.09230769 0.56923077 15.09230769 -2.3125 14.625 C-2.869375 14.41875 -3.42625 14.2125 -4 14 C-3.525625 13.360625 -3.05125 12.72125 -2.5625 12.0625 C-0.52968613 8.07818481 -0.2789471 4.41505926 0 0 Z " fill="#FDCCBD" transform="translate(133,228)"/>
<path d="M0 0 C1.98 0.99 1.98 0.99 4 2 C4 7.94 4 13.88 4 20 C3.01 20 2.02 20 1 20 C0.67 13.4 0.34 6.8 0 0 Z " fill="#02A0AA" transform="translate(132,208)"/>
<path d="M0 0 C1.485 0.99 1.485 0.99 3 2 C3.34057617 4.06298828 3.34057617 4.06298828 3.29296875 6.5703125 C3.28330078 7.46621094 3.27363281 8.36210937 3.26367188 9.28515625 C3.23853516 10.22230469 3.21339844 11.15945312 3.1875 12.125 C3.17396484 13.06988281 3.16042969 14.01476562 3.14648438 14.98828125 C3.11106306 17.32608779 3.06167271 19.66276237 3 22 C2.34 22 1.68 22 1 22 C0.29223008 14.64424835 -0.14715692 7.3905476 0 0 Z " fill="#10A3AB" transform="translate(84,217)"/>
</svg>
