<?xml version="1.0" encoding="UTF-8"?>
<svg version="1.1" xmlns="http://www.w3.org/2000/svg" width="192" height="192">
<path d="M0 0 C2.18341574 0.00851187 4.36420341 -0.02037972 6.54736328 -0.05200195 C26.18907418 -0.14916493 47.20012874 6.5397496 62.31689453 19.44604492 C62.31689453 20.10604492 62.31689453 20.76604492 62.31689453 21.44604492 C62.87376953 21.69354492 63.43064453 21.94104492 64.00439453 22.19604492 C69.42644607 25.12688359 73.74113862 29.45718959 77.31689453 34.44604492 C77.31689453 35.10604492 77.31689453 35.76604492 77.31689453 36.44604492 C78.30689453 36.77604492 79.29689453 37.10604492 80.31689453 37.44604492 C93.58704777 53.0951612 98.88137955 74.11053967 98.76293945 94.12915039 C98.75442759 96.31256613 98.78331917 98.4933538 98.81494141 100.67651367 C98.91210439 120.31822458 92.22318985 141.32927913 79.31689453 156.44604492 C78.65689453 156.44604492 77.99689453 156.44604492 77.31689453 156.44604492 C77.31689453 157.43604492 77.31689453 158.42604492 77.31689453 159.44604492 C75.67722243 160.81243834 74.00579325 162.14098682 72.31689453 163.44604492 C70.95444657 165.08899687 69.61824578 166.7542883 68.31689453 168.44604492 C66.75439453 170.25854492 66.75439453 170.25854492 65.31689453 171.44604492 C64.32689453 171.44604492 63.33689453 171.44604492 62.31689453 171.44604492 C61.98689453 172.43604492 61.65689453 173.42604492 61.31689453 174.44604492 C45.833484 187.57568283 25.09263774 193.00495287 5.28198242 192.89208984 C3.01729811 192.88359333 0.75515898 192.91242651 -1.50927734 192.9440918 C-19.87170057 193.03197358 -36.24295907 187.38358596 -51.68310547 177.44604492 C-52.32763672 177.05030273 -52.97216797 176.65456055 -53.63623047 176.24682617 C-55.02519128 175.37385781 -56.36240017 174.41919619 -57.68310547 173.44604492 C-57.68310547 172.78604492 -57.68310547 172.12604492 -57.68310547 171.44604492 C-58.23998047 171.19854492 -58.79685547 170.95104492 -59.37060547 170.69604492 C-64.79265701 167.76520625 -69.10734955 163.43490025 -72.68310547 158.44604492 C-72.68310547 157.78604492 -72.68310547 157.12604492 -72.68310547 156.44604492 C-73.67310547 156.11604492 -74.66310547 155.78604492 -75.68310547 155.44604492 C-88.9532587 139.79692864 -94.24759049 118.78155017 -94.12915039 98.76293945 C-94.12063852 96.57952372 -94.14953011 94.39873604 -94.18115234 92.21557617 C-94.27831533 72.57386527 -87.58940079 51.56281071 -74.68310547 36.44604492 C-74.02310547 36.44604492 -73.36310547 36.44604492 -72.68310547 36.44604492 C-72.43560547 35.88916992 -72.18810547 35.33229492 -71.93310547 34.75854492 C-69.0022668 29.33649338 -64.6719608 25.02180084 -59.68310547 21.44604492 C-59.02310547 21.44604492 -58.36310547 21.44604492 -57.68310547 21.44604492 C-57.18810547 19.96104492 -57.18810547 19.96104492 -56.68310547 18.44604492 C-41.03398919 5.17589169 -20.01861072 -0.11844009 0 0 Z " fill="#01C7C7" transform="translate(93.68310546875,-0.446044921875)"/>
<path d="M0 0 C5.6461479 4.83955534 11.09470414 9.71732922 16.4375 14.875 C17.67790039 16.02162109 17.67790039 16.02162109 18.94335938 17.19140625 C24.73431847 22.82456052 24.73431847 22.82456052 25.53173828 26.35253906 C25.53515625 28.5703125 25.53515625 28.5703125 25 32 C24.67 32 24.34 32 24 32 C23.505 28.535 23.505 28.535 23 25 C21.05396726 24.40929986 21.05396726 24.40929986 19 24 C17.07641954 25.92358046 17.81284405 29.48327131 17.796875 32.10546875 C17.79117493 32.82229324 17.78547485 33.53911774 17.77960205 34.27766418 C17.77013517 35.80008462 17.7636114 37.3225257 17.75976562 38.8449707 C17.75011176 41.16069159 17.71912793 43.47550527 17.6875 45.79101562 C17.6809648 47.27082807 17.67571636 48.75064686 17.671875 50.23046875 C17.6595282 50.9181987 17.6471814 51.60592865 17.63446045 52.3144989 C17.66006666 57.92023939 19.01030234 62.01030234 23 66 C23.34070409 68.27279815 23.44141829 70.51422264 23.55859375 72.80859375 C24.10637369 75.528103 24.83654517 76.29636936 27 78 C29.18476181 78.44357184 29.18476181 78.44357184 31.59765625 78.36328125 C32.92313477 78.36231445 32.92313477 78.36231445 34.27539062 78.36132812 C35.19513672 78.34521484 36.11488281 78.32910156 37.0625 78.3125 C38.44791992 78.31733398 38.44791992 78.31733398 39.86132812 78.32226562 C44.95927944 78.5833089 44.95927944 78.5833089 49 76 C49.27374623 73.96048644 49.27374623 73.96048644 49.3125 71.6875 C49.71769204 66.92458228 51.33216955 65.11765588 55 62 C56.53826739 57.38519783 56.22544826 52.77112314 56.25 47.9375 C56.270625 46.91849609 56.29125 45.89949219 56.3125 44.84960938 C56.31765625 43.87701172 56.3228125 42.90441406 56.328125 41.90234375 C56.34214355 40.56417603 56.34214355 40.56417603 56.35644531 39.19897461 C56.23881836 38.47331299 56.12119141 37.74765137 56 37 C52.62440574 34.74960383 52.02024357 34.82383991 48.1875 35.3125 C47.30707031 35.42078125 46.42664063 35.5290625 45.51953125 35.640625 C42.6702637 36.04703215 39.8306632 36.47856204 37 37 C36.83322718 40.41656024 36.83322718 40.41656024 37 44 C38.81193006 46.24324836 38.81193006 46.24324836 41.3828125 46.1953125 C42.74019531 46.16050781 42.74019531 46.16050781 44.125 46.125 C45.03507812 46.10695312 45.94515625 46.08890625 46.8828125 46.0703125 C47.58148438 46.04710937 48.28015625 46.02390625 49 46 C48.505 46.99 48.505 46.99 48 48 C46.72125 48.12375 45.4425 48.2475 44.125 48.375 C40.70837624 48.6900664 40.70837624 48.6900664 38.0625 50.875 C36.88951457 53.09575404 36.88951457 53.09575404 36 56 C35.01 56 34.02 56 33 56 C33.55728913 52.65626525 34.35173889 49.96687001 36 47 C35.34 46.01 34.68 45.02 34 44 C33.5625 41.0625 33.5625 41.0625 34 38 C37.73830141 33.65874675 42.53794233 32.74260534 48 32 C49.32 32 50.64 32 52 32 C52.25394531 30.91203125 52.50789062 29.8240625 52.76953125 28.703125 C54.77856658 20.11772987 56.82654607 11.54562567 59 3 C64.27421057 7.3152632 69.06625664 11.99115903 73.82324219 16.86035156 C76.12491398 19.20085753 78.25712451 21.17141634 81 23 C81.59682789 27.59395199 81.47181598 32.22469228 81.44604492 36.85327148 C81.43769486 39.13426894 81.46600077 41.41262044 81.49804688 43.69335938 C81.59321452 63.56606967 75.08916756 84.66904131 62 100 C61.34 100 60.68 100 60 100 C60 100.99 60 101.98 60 103 C58.3603279 104.36639342 56.68889872 105.6949419 55 107 C53.63755204 108.64295195 52.30135125 110.30824337 51 112 C49.4375 113.8125 49.4375 113.8125 48 115 C47.01 115 46.02 115 45 115 C44.505 116.485 44.505 116.485 44 118 C35.90689704 124.86279752 25.0693978 129.80215722 15 133 C14.22527344 133.2784375 13.45054688 133.556875 12.65234375 133.84375 C9.45711103 134.83680074 6.29415364 135.39834679 3 136 C2.25954941 136.18320801 1.51909882 136.36641602 0.75621033 136.55517578 C-6.74028137 138.26785264 -14.86795577 139.05213229 -21.74888229 134.95990372 C-31.46238777 128.07472433 -39.49532036 118.79530666 -47.53875732 110.09881592 C-50.71982109 106.68726845 -53.97187586 103.34479391 -57.21679688 99.99414062 C-61.92238491 95.11462243 -66.60225141 90.21290821 -71.22436523 85.25415039 C-71.95562622 84.47408127 -71.95562622 84.47408127 -72.70166016 83.67825317 C-76 80.11923166 -76 80.11923166 -76 79 C-75.44014404 78.98541748 -74.88028809 78.97083496 -74.3034668 78.95581055 C-71.76411863 78.88128648 -69.22607922 78.78464419 -66.6875 78.6875 C-65.80642578 78.66494141 -64.92535156 78.64238281 -64.01757812 78.61914062 C-63.17001953 78.58369141 -62.32246094 78.54824219 -61.44921875 78.51171875 C-60.66893311 78.48553467 -59.88864746 78.45935059 -59.0847168 78.43237305 C-56.4704962 77.8901802 -55.56630724 77.14422166 -54 75 C-53.77442016 73.00200709 -53.55197894 71.00322435 -53.37890625 69 C-52.80328807 65.96168546 -51.07655955 64.20634452 -49 62 C-47.75502167 59.51004335 -47.87065628 57.81005089 -47.8671875 55.02734375 C-47.86589844 54.04572266 -47.86460938 53.06410156 -47.86328125 52.05273438 C-47.86908203 50.51069336 -47.86908203 50.51069336 -47.875 48.9375 C-47.87113281 47.90560547 -47.86726563 46.87371094 -47.86328125 45.81054688 C-47.86457031 44.83021484 -47.86585937 43.84988281 -47.8671875 42.83984375 C-47.86831543 41.93613037 -47.86944336 41.03241699 -47.87060547 40.10131836 C-47.76637478 38.01285515 -47.76637478 38.01285515 -49 37 C-54.95658462 36.56365734 -60.44276587 36.59687173 -66 39 C-66 41.31 -66 43.62 -66 46 C-62.37 46 -58.74 46 -55 46 C-55 46.66 -55 47.32 -55 48 C-55.60328125 48.06316406 -56.2065625 48.12632813 -56.828125 48.19140625 C-61.69719163 48.84292753 -61.69719163 48.84292753 -65.48828125 51.69140625 C-66.71495735 53.82028245 -66.71495735 53.82028245 -68 57 C-68.66 57 -69.32 57 -70 57 C-69.11049724 51.40883978 -69.11049724 51.40883978 -68.375 48.6875 C-68.25125 48.130625 -68.1275 47.57375 -68 47 C-68.33 46.67 -68.66 46.34 -69 46 C-69.5845968 39.80327391 -69.5845968 39.80327391 -67.43359375 36.84765625 C-64.23224282 34.41709607 -61.72057437 34.19117493 -57.75 33.75 C-56.48671875 33.60046875 -55.2234375 33.4509375 -53.921875 33.296875 C-52.95765625 33.19890625 -51.9934375 33.1009375 -51 33 C-51 29.37 -51 25.74 -51 22 C-49.36199647 23.35919442 -47.73459797 24.73254477 -46.15234375 26.15625 C-44.02693925 28.05663615 -44.02693925 28.05663615 -41.56640625 29.59375 C-37.83378761 32.4126236 -35.35866032 34.77681477 -34.58691406 39.56054688 C-34.30242274 43.63598714 -34.22116835 47.665931 -34.33642578 51.74975586 C-34.58653009 58.10906394 -34.58653009 58.10906394 -31.5234375 63.4140625 C-30.69070312 64.26742187 -29.85796875 65.12078125 -29 66 C-28.3984375 68.44921875 -28.3984375 68.44921875 -28.375 70.6875 C-28.34166576 73.90390499 -28.34166576 73.90390499 -26.76416016 76.60327148 C-24.51994536 78.38007094 -23.2768561 78.38647392 -20.4375 78.3984375 C-19.55835938 78.40230469 -18.67921875 78.40617187 -17.7734375 78.41015625 C-16.40058594 78.39275391 -16.40058594 78.39275391 -15 78.375 C-13.62714844 78.39240234 -13.62714844 78.39240234 -12.2265625 78.41015625 C-11.34742187 78.40628906 -10.46828125 78.40242188 -9.5625 78.3984375 C-8.75941406 78.39505371 -7.95632812 78.39166992 -7.12890625 78.38818359 C-4.50116573 77.90904283 -3.61197894 77.09325208 -2 75 C-1.57262965 72.85719641 -1.57262965 72.85719641 -1.5625 70.5625 C-1.30485225 67.18566998 -1.22293526 66.27170234 1 63.5625 C1.66 63.046875 2.32 62.53125 3 62 C4.46098845 59.0780231 4.11134901 56.50106525 4.09765625 53.2421875 C4.0962413 52.57913605 4.09482635 51.91608459 4.09336853 51.23294067 C4.08776754 49.11358137 4.075215 46.99432741 4.0625 44.875 C4.05748512 43.43880361 4.05292219 42.00260556 4.04882812 40.56640625 C4.03779782 37.04423655 4.02053259 33.52212855 4 30 C1.69 29.67 -0.62 29.34 -3 29 C-3.33 34.61 -3.66 40.22 -4 46 C-6.31 46.66 -8.62 47.32 -11 48 C-13.58670106 50.65477214 -14.82912057 52.4873617 -16 56 C-16.99 56 -17.98 56 -19 56 C-18.72098491 51.39625106 -16.58642116 48.86777299 -13.765625 45.453125 C-11.57213478 43.64786314 -9.78335235 43.35975303 -7 43 C-7.04640625 42.19175781 -7.0928125 41.38351563 -7.140625 40.55078125 C-7.43675727 31.78315096 -7.43675727 31.78315096 -5.1875 27.75 C-3 26 -3 26 0 26 C0 17.42 0 8.84 0 0 Z " fill="#01A0AA" transform="translate(111,56)"/>
<path d="M0 0 C2.5 0.125 2.5 0.125 3.5 1.125 C3.58790975 3.41651417 3.60694038 5.71072524 3.59765625 8.00390625 C3.5962413 8.6905687 3.59482635 9.37723114 3.59336853 10.08470154 C3.58775479 12.28567801 3.57520007 14.48655409 3.5625 16.6875 C3.55748676 18.17643083 3.55292355 19.66536324 3.54882812 21.15429688 C3.53778093 24.81123075 3.52050713 28.46810558 3.5 32.125 C4.16 32.125 4.82 32.125 5.5 32.125 C5.48952637 31.28727051 5.47905273 30.44954102 5.46826172 29.58642578 C5.43419981 26.48161836 5.40911089 23.37690608 5.39013672 20.27197266 C5.37511893 18.2658864 5.34971019 16.25988676 5.32421875 14.25390625 C5.31777344 12.99707031 5.31132813 11.74023438 5.3046875 10.4453125 C5.29421387 9.28273926 5.28374023 8.12016602 5.27294922 6.92236328 C5.5 4.125 5.5 4.125 7.5 2.125 C12.05555556 2.68055556 12.05555556 2.68055556 13.5 4.125 C13.83685178 8.40856071 13.8250041 12.70489785 13.875 17 C13.93107422 18.81564453 13.93107422 18.81564453 13.98828125 20.66796875 C13.99988281 21.82683594 14.01148438 22.98570313 14.0234375 24.1796875 C14.0531665 25.78046143 14.0531665 25.78046143 14.08349609 27.41357422 C13.5 30.125 13.5 30.125 11.02978516 31.87158203 C10.19495605 32.28520996 9.36012695 32.69883789 8.5 33.125 C7.15681224 35.81137553 7.38878564 38.06556428 7.3125 41.0625 C7.0703125 44.34375 7.0703125 44.34375 6.5 47.125 C3.6875 49.0625 3.6875 49.0625 0.5 50.125 C-2.42628626 53.21385772 -4.12325978 56.10950769 -5.5 60.125 C-4.51 60.125 -3.52 60.125 -2.5 60.125 C-2.45875 59.403125 -2.4175 58.68125 -2.375 57.9375 C-1.11796309 53.89702423 1.04281663 52.45195034 4.5 50.125 C7.203125 49.98828125 7.203125 49.98828125 9.5 50.125 C9.44779297 48.55298828 9.44779297 48.55298828 9.39453125 46.94921875 C9.36639063 45.57032853 9.33909076 44.19142098 9.3125 42.8125 C9.28736328 42.12220703 9.26222656 41.43191406 9.23632812 40.72070312 C9.16247629 35.62492642 9.16247629 35.62492642 10.84765625 33.12890625 C12.5 32.125 12.5 32.125 15.125 32.375 C17.5 33.125 17.5 33.125 18.5 34.125 C18.76709252 38.30822144 18.77134126 42.4975067 18.79516602 46.68823242 C18.8122917 48.78697356 18.85614524 50.88410284 18.90039062 52.98242188 C18.91052536 54.32550926 18.91903902 55.66861005 18.92578125 57.01171875 C18.94036377 58.23076904 18.95494629 59.44981934 18.9699707 60.70581055 C18.40991031 64.78043172 17.09243139 66.96793434 14.5 70.125 C13.84 70.125 13.18 70.125 12.5 70.125 C12.54640625 70.72828125 12.5928125 71.3315625 12.640625 71.953125 C12.69476563 73.15195313 12.69476563 73.15195313 12.75 74.375 C12.79640625 75.16390625 12.8428125 75.9528125 12.890625 76.765625 C12.5 79.125 12.5 79.125 11.109375 81.390625 C7.07689623 84.07089532 3.23371124 83.70614934 -1.5 83.625 C-2.85351562 83.64820313 -2.85351562 83.64820313 -4.234375 83.671875 C-10.74880406 83.63332808 -10.74880406 83.63332808 -14.09765625 81.3671875 C-16.01715392 78.29812995 -15.93983655 76.07248665 -15.93359375 72.5390625 C-16.34031513 69.84479445 -16.34031513 69.84479445 -19.00048828 67.64892578 C-22.66519743 63.34717969 -22.16529057 58.74058881 -22.05859375 53.328125 C-22.05626236 52.29814392 -22.05393097 51.26816284 -22.05152893 50.20697021 C-22.04181407 48.03844881 -22.0200794 45.86995193 -21.98706055 43.70166016 C-21.9374604 40.37234211 -21.92556702 37.04449869 -21.91992188 33.71484375 C-21.905843 31.60675501 -21.88964117 29.49867916 -21.87109375 27.390625 C-21.86573105 26.39170227 -21.86036835 25.39277954 -21.85484314 24.36358643 C-21.83885574 23.4421283 -21.82286835 22.52067017 -21.80639648 21.57128906 C-21.79575668 20.75887756 -21.78511688 19.94646606 -21.77415466 19.10943604 C-21.5 17.125 -21.5 17.125 -19.5 15.125 C-15.96428571 15.66071429 -15.96428571 15.66071429 -14.5 17.125 C-14.43941406 16.48691406 -14.37882812 15.84882812 -14.31640625 15.19140625 C-14.23261719 14.36511719 -14.14882812 13.53882812 -14.0625 12.6875 C-13.98128906 11.86378906 -13.90007812 11.04007813 -13.81640625 10.19140625 C-13.5 8.125 -13.5 8.125 -12.5 7.125 C-9.5 7 -9.5 7 -6.5 7.125 C-6.17 7.455 -5.84 7.785 -5.5 8.125 C-5.190625 6.990625 -4.88125 5.85625 -4.5625 4.6875 C-3.21237756 0.16061888 -3.21237756 0.16061888 0 0 Z " fill="#F6DCCD" transform="translate(97.5,51.875)"/>
<path d="M0 0 C1.875 0.6875 1.875 0.6875 2.875 1.6875 C2.96290975 3.97901417 2.98194038 6.27322524 2.97265625 8.56640625 C2.9712413 9.2530687 2.96982635 9.93973114 2.96836853 10.64720154 C2.96275479 12.84817801 2.95020007 15.04905409 2.9375 17.25 C2.93248676 18.73893083 2.92792355 20.22786324 2.92382812 21.71679688 C2.91278093 25.37373075 2.89550713 29.03060558 2.875 32.6875 C3.865 32.1925 3.865 32.1925 4.875 31.6875 C5.61302471 29.37183542 6.2394641 27.10673106 6.8125 24.75 C7.16173987 23.38255145 7.51200402 22.0153641 7.86328125 20.6484375 C8.03424316 19.97522461 8.20520508 19.30201172 8.38134766 18.60839844 C9.04697049 16.01832898 9.75788313 13.44415587 10.5 10.875 C10.82871094 9.72064453 10.82871094 9.72064453 11.1640625 8.54296875 C11.875 6.6875 11.875 6.6875 13.875 4.6875 C18.43055556 5.24305556 18.43055556 5.24305556 19.875 6.6875 C19.56804345 16.35663131 17.23361057 27.97027887 12.875 36.6875 C10.3941719 37.43731345 7.95530889 38.09233926 5.4375 38.6875 C0.19545147 39.74804451 0.19545147 39.74804451 -4.125 42.6875 C-4.49116158 46.83890696 -4.49116158 46.83890696 -2.9921875 50.6171875 C-2.125 52.6875 -2.125 52.6875 -2.8046875 54.828125 C-3.19914062 55.52421875 -3.59359375 56.2203125 -4 56.9375 C-4.38929688 57.64390625 -4.77859375 58.3503125 -5.1796875 59.078125 C-5.49164063 59.60921875 -5.80359375 60.1403125 -6.125 60.6875 C-5.135 60.6875 -4.145 60.6875 -3.125 60.6875 C-3.021875 59.924375 -2.91875 59.16125 -2.8125 58.375 C-2.03630635 55.34078846 -1.74437959 54.37742232 0.875 52.6875 C3.55524502 52.14191653 6.13809645 51.91183636 8.875 51.6875 C7.95267578 51.73970703 7.95267578 51.73970703 7.01171875 51.79296875 C6.20347656 51.82003906 5.39523438 51.84710938 4.5625 51.875 C3.36173828 51.92720703 3.36173828 51.92720703 2.13671875 51.98046875 C-0.125 51.6875 -0.125 51.6875 -1.9375 50.40625 C-3.125 48.6875 -3.125 48.6875 -2.8125 45 C-2.585625 43.906875 -2.35875 42.81375 -2.125 41.6875 C9.57115682 37.9438838 9.57115682 37.9438838 15.875 39.6875 C18.83980373 42.65230373 18.167282 45.33465845 18.19726562 49.390625 C18.19404297 50.39609375 18.19082031 51.4015625 18.1875 52.4375 C18.20361328 53.4275 18.21972656 54.4175 18.23632812 55.4375 C18.23998212 60.9038749 18.08094718 65.03249473 14.875 69.6875 C13.885 70.3475 12.895 71.0075 11.875 71.6875 C11.40569851 73.78593326 11.40569851 73.78593326 11.375 76.125 C11.21186267 80.25101494 11.21186267 80.25101494 9.63256836 82.29736328 C6.29744617 84.93525545 2.02302772 84.15680524 -2.0625 84.125 C-2.96935547 84.14498047 -3.87621094 84.16496094 -4.81054688 84.18554688 C-11.39290128 84.18070335 -11.39290128 84.18070335 -14.72265625 81.9375 C-16.25982325 79.47118191 -16.58510905 78.12713509 -16.625 75.25 C-16.91090314 70.89712471 -18.09246908 68.9095641 -21.125 65.6875 C-22.30475644 62.14823068 -22.28711347 58.92964551 -22.29296875 55.24609375 C-22.29629715 54.52261246 -22.29962555 53.79913116 -22.30305481 53.0537262 C-22.30811173 51.5264652 -22.31046352 49.99919319 -22.31030273 48.47192383 C-22.31249514 46.13018786 -22.33067948 43.78891863 -22.34960938 41.44726562 C-22.35254232 39.96354328 -22.35452778 38.4798187 -22.35546875 36.99609375 C-22.36265427 36.29399277 -22.36983978 35.59189178 -22.37724304 34.86851501 C-22.35383364 29.91633364 -22.35383364 29.91633364 -20.125 27.6875 C-16.58928571 28.22321429 -16.58928571 28.22321429 -15.125 29.6875 C-14.795 28.0375 -14.465 26.3875 -14.125 24.6875 C-11.25 24.0625 -11.25 24.0625 -8.125 23.6875 C-7.465 24.3475 -6.805 25.0075 -6.125 25.6875 C-6.11041748 24.97094238 -6.09583496 24.25438477 -6.08081055 23.51611328 C-6.00651 20.28102017 -5.90979139 17.04697981 -5.8125 13.8125 C-5.78994141 12.68457031 -5.76738281 11.55664062 -5.74414062 10.39453125 C-5.70869141 9.31816406 -5.67324219 8.24179687 -5.63671875 7.1328125 C-5.61053467 6.13781738 -5.58435059 5.14282227 -5.55737305 4.11767578 C-5.41468994 3.31571777 -5.27200684 2.51375977 -5.125 1.6875 C-2.125 -0.3125 -2.125 -0.3125 0 0 Z " fill="#F9DCCE" transform="translate(150.125,51.3125)"/>
<path d="M0 0 C2.4375 0.3125 2.4375 0.3125 4.4375 2.3125 C4.6328125 5.1328125 4.6328125 5.1328125 4.5625 8.4375 C4.54445312 9.53320312 4.52640625 10.62890625 4.5078125 11.7578125 C4.48460937 12.60085937 4.46140625 13.44390625 4.4375 14.3125 C3.261875 14.60125 2.08625 14.89 0.875 15.1875 C-0.60462407 15.56069115 -2.08378463 15.93572436 -3.5625 16.3125 C-4.22894531 16.48007813 -4.89539063 16.64765625 -5.58203125 16.8203125 C-8.57226852 17.61351228 -10.33648618 18.08648618 -12.5625 20.3125 C-12.82833683 24.88299288 -12.82833683 24.88299288 -11.875 29.3125 C-11.34522813 32.70303999 -13.10336998 35.27750956 -14.5625 38.3125 C-12.22985134 37.42185135 -12.22985134 37.42185135 -11.375 34.375 C-9.5625 31.3125 -9.5625 31.3125 -6.0625 29.9375 C-2.5625 29.3125 -2.5625 29.3125 0.4375 29.3125 C0.4375 28.6525 0.4375 27.9925 0.4375 27.3125 C-0.2225 27.6425 -0.8825 27.9725 -1.5625 28.3125 C-3.08095202 28.40722912 -4.60360384 28.4423841 -6.125 28.4375 C-7.33349609 28.44136719 -7.33349609 28.44136719 -8.56640625 28.4453125 C-10.5625 28.3125 -10.5625 28.3125 -11.5625 27.3125 C-11.60342937 24.97952567 -11.60491723 22.64544775 -11.5625 20.3125 C-5.67133916 17.17054755 -0.217881 16.46264206 6.4375 17.3125 C9.84713646 20.72213646 8.80657187 25.43855578 8.8125 30.0625 C8.83699219 31.0525 8.86148438 32.0425 8.88671875 33.0625 C8.91113882 39.15123869 8.45955895 42.65862336 4.4375 47.3125 C4.1075 47.6425 3.7775 47.9725 3.4375 48.3125 C2.94418876 50.8552952 2.53771963 53.4065669 2.1328125 55.96484375 C1.4375 58.3125 1.4375 58.3125 -1.5625 60.3125 C-4.69407434 60.73803704 -7.84255966 60.63679029 -11 60.625 C-11.85916016 60.64111328 -12.71832031 60.65722656 -13.60351562 60.67382812 C-17.19257745 60.6766125 -19.8550057 60.64632531 -23.12890625 59.1015625 C-24.99517408 56.77254161 -25.02688719 55.33531462 -25.0625 52.375 C-25.25398743 48.25790761 -25.25398743 48.25790761 -27.5625 44.875 C-28.2225 44.359375 -28.8825 43.84375 -29.5625 43.3125 C-30.76347651 39.70957048 -30.72468678 36.40342969 -30.73046875 32.65234375 C-30.73546135 31.53382774 -30.73546135 31.53382774 -30.74055481 30.39271545 C-30.74561236 28.81837582 -30.7479635 27.24402549 -30.74780273 25.66967773 C-30.74999499 23.25551884 -30.76817832 20.84181278 -30.78710938 18.42773438 C-30.79004234 16.89843907 -30.79202778 15.36914158 -30.79296875 13.83984375 C-30.80015427 13.11586899 -30.80733978 12.39189423 -30.81474304 11.64598083 C-30.79133303 6.54133303 -30.79133303 6.54133303 -28.5625 4.3125 C-27.2425 4.6425 -25.9225 4.9725 -24.5625 5.3125 C-24.5625 8.2825 -24.5625 11.2525 -24.5625 14.3125 C-23.9025 14.3125 -23.2425 14.3125 -22.5625 14.3125 C-22.58570313 13.54164062 -22.60890625 12.77078125 -22.6328125 11.9765625 C-22.65085937 10.97367188 -22.66890625 9.97078125 -22.6875 8.9375 C-22.71070313 7.93976563 -22.73390625 6.94203125 -22.7578125 5.9140625 C-22.5625 3.3125 -22.5625 3.3125 -20.5625 1.3125 C-17.9375 1.6875 -17.9375 1.6875 -15.5625 2.3125 C-15.5625 5.6125 -15.5625 8.9125 -15.5625 12.3125 C-14.9025 12.3125 -14.2425 12.3125 -13.5625 12.3125 C-13.57410156 11.60222656 -13.58570312 10.89195313 -13.59765625 10.16015625 C-13.60667969 9.24105469 -13.61570312 8.32195312 -13.625 7.375 C-13.63660156 6.45847656 -13.64820312 5.54195313 -13.66015625 4.59765625 C-13.5625 2.3125 -13.5625 2.3125 -12.5625 1.3125 C-10.125 1.125 -10.125 1.125 -7.5625 1.3125 C-6.9025 1.9725 -6.2425 2.6325 -5.5625 3.3125 C-5.170625 2.8175 -4.77875 2.3225 -4.375 1.8125 C-2.5625 0.3125 -2.5625 0.3125 0 0 Z " fill="#FADDCE" transform="translate(55.5625,74.6875)"/>
<path d="M0 0 C2.96480373 2.96480373 2.292282 5.64715845 2.32226562 9.703125 C2.31904297 10.70859375 2.31582031 11.7140625 2.3125 12.75 C2.32861328 13.74 2.34472656 14.73 2.36132812 15.75 C2.36498212 21.2163749 2.20594718 25.34499473 -1 30 C-1.99 30.66 -2.98 31.32 -4 32 C-4.46930149 34.09843326 -4.46930149 34.09843326 -4.5 36.4375 C-4.6636131 40.57554801 -4.80575917 40.80575917 -8 44 C-10.97 44 -13.94 44 -17 44 C-17 35.75 -17 27.5 -17 19 C-17.66 18.67 -18.32 18.34 -19 18 C-16.10782241 13.30021142 -16.10782241 13.30021142 -12.953125 12.4453125 C-10.97669255 12.21402785 -8.98743631 12.09937182 -7 12 C-8.43655854 12.08131463 -9.8744483 12.13933559 -11.3125 12.1875 C-12.51326172 12.23970703 -12.51326172 12.23970703 -13.73828125 12.29296875 C-16 12 -16 12 -17.8125 10.71875 C-19 9 -19 9 -18.6875 5.3125 C-18.460625 4.219375 -18.23375 3.12625 -18 2 C-6.30384318 -1.7436162 -6.30384318 -1.7436162 0 0 Z " fill="#FCCCBD" transform="translate(166,91)"/>
<path d="M0 0 C2.375 0.75 2.375 0.75 3.375 1.75 C3.64209252 5.93322144 3.64634126 10.1225067 3.67016602 14.31323242 C3.6872917 16.41197356 3.73114524 18.50910284 3.77539062 20.60742188 C3.78552536 21.95050926 3.79403902 23.29361005 3.80078125 24.63671875 C3.81536377 25.85576904 3.82994629 27.07481934 3.8449707 28.33081055 C3.28491031 32.40543172 1.96743139 34.59293434 -0.625 37.75 C-1.285 37.75 -1.945 37.75 -2.625 37.75 C-2.57859375 38.35328125 -2.5321875 38.9565625 -2.484375 39.578125 C-2.31521461 43.32381946 -2.20257904 45.96276093 -4 49.3125 C-6.97390164 50.94106519 -8.44881276 50.90190009 -11.7890625 50.83984375 C-12.69350098 50.82687256 -13.59793945 50.81390137 -14.52978516 50.80053711 C-15.5669165 50.77552124 -15.5669165 50.77552124 -16.625 50.75 C-16.93914806 46.54373226 -17.19361801 42.33587986 -17.4375 38.125 C-17.52708984 36.93519531 -17.61667969 35.74539062 -17.70898438 34.51953125 C-18.23437896 24.6199911 -18.23437896 24.6199911 -15.57421875 20.9765625 C-12.15237264 18.39318199 -9.86895619 17.91642965 -5.625 17.75 C-5.65980469 16.70199219 -5.69460937 15.65398437 -5.73046875 14.57421875 C-5.75860937 13.19532853 -5.78590924 11.81642098 -5.8125 10.4375 C-5.83763672 9.74720703 -5.86277344 9.05691406 -5.88867188 8.34570312 C-5.96252371 3.24992642 -5.96252371 3.24992642 -4.27734375 0.75390625 C-2.625 -0.25 -2.625 -0.25 0 0 Z " fill="#F8CBBD" transform="translate(112.625,84.25)"/>
<path d="M0 0 C3.40963646 3.40963646 2.36907187 8.12605578 2.375 12.75 C2.39949219 13.74 2.42398438 14.73 2.44921875 15.75 C2.47363882 21.83873869 2.02205895 25.34612336 -2 30 C-2.33 30.33 -2.66 30.66 -3 31 C-3.49331124 33.5427952 -3.89978037 36.0940669 -4.3046875 38.65234375 C-5 41 -5 41 -8 43 C-10.04296875 43.1953125 -10.04296875 43.1953125 -12.1875 43.125 C-13.445625 43.08375 -14.70375 43.0425 -16 43 C-16.19224376 39.0495047 -16.37096681 35.09865416 -16.53710938 31.14697266 C-16.59555475 29.80240434 -16.65771076 28.45799202 -16.72363281 27.11376953 C-16.81767443 25.18306663 -16.89732692 23.2516797 -16.9765625 21.3203125 C-17.05511475 19.57645264 -17.05511475 19.57645264 -17.13525391 17.79736328 C-17 15 -17 15 -15 13 C-12.8359375 12.5859375 -12.8359375 12.5859375 -10.375 12.375 C-9.14910156 12.26285156 -9.14910156 12.26285156 -7.8984375 12.1484375 C-7.27195312 12.09945312 -6.64546875 12.05046875 -6 12 C-6 11.34 -6 10.68 -6 10 C-6.99 10.495 -6.99 10.495 -8 11 C-9.51845202 11.09472912 -11.04110384 11.1298841 -12.5625 11.125 C-13.77099609 11.12886719 -13.77099609 11.12886719 -15.00390625 11.1328125 C-17 11 -17 11 -18 10 C-18.04092937 7.66702567 -18.04241723 5.33294775 -18 3 C-12.10883916 -0.14195245 -6.655381 -0.84985794 0 0 Z " fill="#FBCCBD" transform="translate(62,92)"/>
<path d="M0 0 C2.475 0.495 2.475 0.495 5 1 C5 11.23 5 21.46 5 32 C5.66 32 6.32 32 7 32 C6.98952637 31.16227051 6.97905273 30.32454102 6.96826172 29.46142578 C6.93419981 26.35661836 6.90911089 23.25190608 6.89013672 20.14697266 C6.87511893 18.1408864 6.84971019 16.13488676 6.82421875 14.12890625 C6.81777344 12.87207031 6.81132813 11.61523438 6.8046875 10.3203125 C6.79421387 9.15773926 6.78374023 7.99516602 6.77294922 6.79736328 C7 4 7 4 9 2 C13.55555556 2.55555556 13.55555556 2.55555556 15 4 C15.33685178 8.28356071 15.3250041 12.57989785 15.375 16.875 C15.41238281 18.08542969 15.44976562 19.29585937 15.48828125 20.54296875 C15.49988281 21.70183594 15.51148437 22.86070313 15.5234375 24.0546875 C15.54325684 25.12187012 15.56307617 26.18905273 15.58349609 27.28857422 C15 30 15 30 12.52978516 31.74658203 C11.69495605 32.16020996 10.86012695 32.57383789 10 33 C8.65681224 35.68637553 8.88878564 37.94056428 8.8125 40.9375 C8.578125 44.203125 8.578125 44.203125 8 47 C5.0625 49.1875 5.0625 49.1875 2 50 C1.01 50.495 1.01 50.495 0 51 C0 34.17 0 17.34 0 0 Z " fill="#FACCBD" transform="translate(96,52)"/>
<path d="M0 0 C2.4375 0.3125 2.4375 0.3125 4.4375 2.3125 C4.6328125 5.1328125 4.6328125 5.1328125 4.5625 8.4375 C4.54445312 9.53320312 4.52640625 10.62890625 4.5078125 11.7578125 C4.48460937 12.60085937 4.46140625 13.44390625 4.4375 14.3125 C3.2825 14.60125 2.1275 14.89 0.9375 15.1875 C0.215625 15.36796875 -0.50625 15.5484375 -1.25 15.734375 C-3.5625 16.3125 -3.5625 16.3125 -5.875 16.890625 C-6.9578125 17.16132812 -6.9578125 17.16132812 -8.0625 17.4375 C-9.795 17.870625 -9.795 17.870625 -11.5625 18.3125 C-12.2225 17.3225 -12.8825 16.3325 -13.5625 15.3125 C-13.954375 16.1375 -14.34625 16.9625 -14.75 17.8125 C-15.348125 18.6375 -15.94625 19.4625 -16.5625 20.3125 C-19.25 20.625 -19.25 20.625 -21.5625 20.3125 C-21.8925 18.6625 -22.2225 17.0125 -22.5625 15.3125 C-23.2225 15.3125 -23.8825 15.3125 -24.5625 15.3125 C-24.8925 16.9625 -25.2225 18.6125 -25.5625 20.3125 C-26.8825 20.3125 -28.2025 20.3125 -29.5625 20.3125 C-29.5625 26.9125 -29.5625 33.5125 -29.5625 40.3125 C-29.8925 40.3125 -30.2225 40.3125 -30.5625 40.3125 C-30.61186883 35.50701403 -30.64820443 30.70167506 -30.67236328 25.89599609 C-30.68243254 24.26055328 -30.69608881 22.62512851 -30.71337891 20.98974609 C-30.73758705 18.6415563 -30.74897357 16.29360412 -30.7578125 13.9453125 C-30.77329636 12.84523361 -30.77329636 12.84523361 -30.78909302 11.72293091 C-30.78949368 9.91787303 -30.68462755 8.1134217 -30.5625 6.3125 C-29.9025 5.6525 -29.2425 4.9925 -28.5625 4.3125 C-27.2425 4.6425 -25.9225 4.9725 -24.5625 5.3125 C-24.5625 8.2825 -24.5625 11.2525 -24.5625 14.3125 C-23.9025 14.3125 -23.2425 14.3125 -22.5625 14.3125 C-22.58570313 13.54164062 -22.60890625 12.77078125 -22.6328125 11.9765625 C-22.65085937 10.97367188 -22.66890625 9.97078125 -22.6875 8.9375 C-22.71070313 7.93976563 -22.73390625 6.94203125 -22.7578125 5.9140625 C-22.5625 3.3125 -22.5625 3.3125 -20.5625 1.3125 C-17.9375 1.6875 -17.9375 1.6875 -15.5625 2.3125 C-15.5625 5.6125 -15.5625 8.9125 -15.5625 12.3125 C-14.9025 12.3125 -14.2425 12.3125 -13.5625 12.3125 C-13.57410156 11.60222656 -13.58570312 10.89195313 -13.59765625 10.16015625 C-13.60667969 9.24105469 -13.61570312 8.32195312 -13.625 7.375 C-13.63660156 6.45847656 -13.64820312 5.54195313 -13.66015625 4.59765625 C-13.5625 2.3125 -13.5625 2.3125 -12.5625 1.3125 C-10.125 1.125 -10.125 1.125 -7.5625 1.3125 C-6.9025 1.9725 -6.2425 2.6325 -5.5625 3.3125 C-5.170625 2.8175 -4.77875 2.3225 -4.375 1.8125 C-2.5625 0.3125 -2.5625 0.3125 0 0 Z " fill="#F9CDBE" transform="translate(55.5625,74.6875)"/>
<path d="M0 0 C4 1 4 1 5 2 C5.08790975 4.29151417 5.10694038 6.58572524 5.09765625 8.87890625 C5.0962413 9.5655687 5.09482635 10.25223114 5.09336853 10.95970154 C5.08775479 13.16067801 5.07520007 15.36155409 5.0625 17.5625 C5.05748676 19.05143083 5.05292355 20.54036324 5.04882812 22.02929688 C5.03778093 25.68623075 5.02050713 29.34310558 5 33 C5.99 32.505 5.99 32.505 7 32 C7.73802471 29.68433542 8.3644641 27.41923106 8.9375 25.0625 C9.28673987 23.69505145 9.63700402 22.3278641 9.98828125 20.9609375 C10.15924316 20.28772461 10.33020508 19.61451172 10.50634766 18.92089844 C11.17197049 16.33082898 11.88288313 13.75665587 12.625 11.1875 C12.84414062 10.41792969 13.06328125 9.64835937 13.2890625 8.85546875 C14 7 14 7 16 5 C20.55555556 5.55555556 20.55555556 5.55555556 22 7 C21.69304345 16.66913131 19.35861057 28.28277887 15 37 C10.38 37.99 5.76 38.98 1 40 C0.67 26.8 0.34 13.6 0 0 Z " fill="#F7CCBD" transform="translate(148,51)"/>
<path d="M0 0 C1.98119355 1.98119355 1.18500411 5.73445064 1.1875 8.4375 C1.19974609 9.13166016 1.21199219 9.82582031 1.22460938 10.54101562 C1.22989842 12.36220901 1.12169207 14.1828692 1 16 C0.34 16.66 -0.32 17.32 -1 18 C-5.55555556 17.44444444 -5.55555556 17.44444444 -7 16 C-7.66 16.99 -8.32 17.98 -9 19 C-10.65 19 -12.3 19 -14 19 C-14 25.27 -14 31.54 -14 38 C-14.33 38 -14.66 38 -15 38 C-15.04937279 33.33692986 -15.08570627 28.67401127 -15.10986328 24.01074219 C-15.11993188 22.42380117 -15.13358767 20.83687875 -15.15087891 19.25 C-15.17509001 16.97130753 -15.18647422 14.69285994 -15.1953125 12.4140625 C-15.20563507 11.70255035 -15.21595764 10.99103821 -15.22659302 10.25796509 C-15.22699422 8.50368335 -15.12202209 6.75003291 -15 5 C-14.34 4.34 -13.68 3.68 -13 3 C-9.46428571 3.53571429 -9.46428571 3.53571429 -8 5 C-7.814375 3.7934375 -7.814375 3.7934375 -7.625 2.5625 C-7.41875 1.716875 -7.2125 0.87125 -7 0 C-4.31633121 -1.3418344 -2.84719317 -0.73004953 0 0 Z " fill="#E9CBBF" transform="translate(143,76)"/>
<path d="M0 0 C2 2 2 2 2.22705078 4.24658203 C2.21657715 5.15778809 2.20610352 6.06899414 2.1953125 7.0078125 C2.18886719 7.99394531 2.18242187 8.98007813 2.17578125 9.99609375 C2.15902344 11.02863281 2.14226562 12.06117187 2.125 13.125 C2.11597656 14.16527344 2.10695312 15.20554687 2.09765625 16.27734375 C2.07403747 18.85179092 2.04110149 21.42578212 2 24 C1.67 24 1.34 24 1 24 C0.67 19.05 0.34 14.1 0 9 C-1.32 9.33 -2.64 9.66 -4 10 C-4.33 10.99 -4.66 11.98 -5 13 C-16.59090909 11.40909091 -16.59090909 11.40909091 -19 9 C-18.625 5.375 -18.625 5.375 -18 2 C-6.30384318 -1.7436162 -6.30384318 -1.7436162 0 0 Z " fill="#EDBDAC" transform="translate(166,91)"/>
<path d="M0 0 C2 2 2 2 2.22705078 4.24658203 C2.21657715 5.15778809 2.20610352 6.06899414 2.1953125 7.0078125 C2.18886719 7.99394531 2.18242188 8.98007813 2.17578125 9.99609375 C2.15902344 11.02863281 2.14226562 12.06117187 2.125 13.125 C2.11597656 14.16527344 2.10695313 15.20554687 2.09765625 16.27734375 C2.07403747 18.85179092 2.04110149 21.42578212 2 24 C1.67 24 1.34 24 1 24 C0.67 19.05 0.34 14.1 0 9 C-1.134375 9.33 -2.26875 9.66 -3.4375 10 C-7.94685637 11.13539151 -12.36579453 11.43604122 -17 11 C-18 10 -18 10 -18.0625 6.4375 C-18.041875 5.303125 -18.02125 4.16875 -18 3 C-12.10883916 -0.14195245 -6.655381 -0.84985794 0 0 Z " fill="#F4BEAC" transform="translate(62,92)"/>
<path d="M0 0 C2.4375 0.3125 2.4375 0.3125 4.4375 2.3125 C4.6328125 5.1328125 4.6328125 5.1328125 4.5625 8.4375 C4.54445313 9.53320312 4.52640625 10.62890625 4.5078125 11.7578125 C4.48460937 12.60085937 4.46140625 13.44390625 4.4375 14.3125 C-0.70201171 15.73029633 -4.07203976 16.3125 -9.5625 16.3125 C-9.5625 11.3625 -9.5625 6.4125 -9.5625 1.3125 C-7.5825 2.3025 -7.5825 2.3025 -5.5625 3.3125 C-5.170625 2.8175 -4.77875 2.3225 -4.375 1.8125 C-2.5625 0.3125 -2.5625 0.3125 0 0 Z " fill="#F5BEAB" transform="translate(55.5625,74.6875)"/>
<path d="M0 0 C7 6 7 6 8.05078125 8.4375 C7.98300592 11.85754733 7.18481172 14.72966335 6.1875 18 C5.83042969 19.19625 5.47335938 20.3925 5.10546875 21.625 C4.17225677 24.47409946 3.15697485 27.23582479 2 30 C1.34 30 0.68 30 0 30 C0 20.1 0 10.2 0 0 Z " fill="#1AA4AC" transform="translate(153,54)"/>
<path d="M0 0 C4.70588235 0.70588235 4.70588235 0.70588235 6 2 C6.12653198 4.49238569 6.18519825 6.94470441 6.1875 9.4375 C6.19974609 10.13166016 6.21199219 10.82582031 6.22460938 11.54101562 C6.22989842 13.36220901 6.12169207 15.1828692 6 17 C5.34 17.66 4.68 18.32 4 19 C1.375 18.625 1.375 18.625 -1 18 C-2.2102267 14.34222526 -1.94073402 11.12264157 -1.625 7.3125 C-1.53476563 6.15363281 -1.44453125 4.99476562 -1.3515625 3.80078125 C-1 1 -1 1 0 0 Z " fill="#FCCDBE" transform="translate(138,75)"/>
<path d="M0 0 C1.32 0.33 2.64 0.66 4 1 C4 3.97 4 6.94 4 10 C4.66 10.33 5.32 10.66 6 11 C5.34 11 4.68 11 4 11 C3.67 12.65 3.34 14.3 3 16 C1.68 16 0.36 16 -1 16 C-1 22.6 -1 29.2 -1 36 C-1.33 36 -1.66 36 -2 36 C-2.04936883 31.19451403 -2.08570443 26.38917506 -2.10986328 21.58349609 C-2.11993254 19.94805328 -2.13358881 18.31262851 -2.15087891 16.67724609 C-2.17508705 14.3290563 -2.18647357 11.98110412 -2.1953125 9.6328125 C-2.21079636 8.53273361 -2.21079636 8.53273361 -2.22659302 7.41043091 C-2.22699368 5.60537303 -2.12212755 3.8009217 -2 2 C-1.34 1.34 -0.68 0.68 0 0 Z " fill="#DFCEC1" transform="translate(27,79)"/>
<path d="M0 0 C-4.97361654 1.75734451 -9.7415998 3.32584613 -15 4 C-15.16677282 7.41656024 -15.16677282 7.41656024 -15 11 C-13.18806994 13.24324836 -13.18806994 13.24324836 -10.6171875 13.1953125 C-9.25980469 13.16050781 -9.25980469 13.16050781 -7.875 13.125 C-6.96492187 13.10695313 -6.05484375 13.08890625 -5.1171875 13.0703125 C-4.41851562 13.04710938 -3.71984375 13.02390625 -3 13 C-3.33 13.66 -3.66 14.32 -4 15 C-5.27875 15.12375 -6.5575 15.2475 -7.875 15.375 C-11.29162376 15.6900664 -11.29162376 15.6900664 -13.9375 17.875 C-15.11048543 20.09575404 -15.11048543 20.09575404 -16 23 C-16.99 23 -17.98 23 -19 23 C-18.44271087 19.65626525 -17.64826111 16.96687001 -16 14 C-16.66 13.01 -17.32 12.02 -18 11 C-18.4375 8.0625 -18.4375 8.0625 -18 5 C-13.65019942 -0.05138132 -6.33677643 -1.99730595 0 0 Z " fill="#36AAAE" transform="translate(163,89)"/>
<path d="M0 0 C0 0.33 0 0.66 0 1 C-0.98742187 1.13277344 -1.97484375 1.26554687 -2.9921875 1.40234375 C-4.27351563 1.57894531 -5.55484375 1.75554687 -6.875 1.9375 C-8.78925781 2.19853516 -8.78925781 2.19853516 -10.7421875 2.46484375 C-13.87559454 2.81433227 -13.87559454 2.81433227 -16 4 C-16 6.31 -16 8.62 -16 11 C-12.37 11 -8.74 11 -5 11 C-5 11.66 -5 12.32 -5 13 C-5.60328125 13.06316406 -6.2065625 13.12632813 -6.828125 13.19140625 C-11.69719163 13.84292753 -11.69719163 13.84292753 -15.48828125 16.69140625 C-16.71495735 18.82028245 -16.71495735 18.82028245 -18 22 C-18.66 22 -19.32 22 -20 22 C-19.11049724 16.40883978 -19.11049724 16.40883978 -18.375 13.6875 C-18.25125 13.130625 -18.1275 12.57375 -18 12 C-18.33 11.67 -18.66 11.34 -19 11 C-19.58035714 4.84821429 -19.58035714 4.84821429 -17.375 1.625 C-11.96341865 -2.07766093 -6.14533814 -0.88765995 0 0 Z " fill="#38A9AC" transform="translate(61,91)"/>
<path d="M0 0 C0.33 0 0.66 0 1 0 C1.19397476 1.97854258 1.38001321 3.9578648 1.5625 5.9375 C1.66691406 7.03964844 1.77132812 8.14179687 1.87890625 9.27734375 C1.91886719 10.17582031 1.95882812 11.07429688 2 12 C1.67 12.33 1.34 12.66 1 13 C1.66 13.66 2.32 14.32 3 15 C1.9275 15.226875 0.855 15.45375 -0.25 15.6875 C-4.41998137 17.14699348 -5.67299718 18.33049555 -8 22 C-8.33 22.99 -8.66 23.98 -9 25 C-9.99 25 -10.98 25 -12 25 C-11.72098491 20.39625106 -9.58642116 17.86777299 -6.765625 14.453125 C-5 13 -5 13 0 12 C0 8.04 0 4.08 0 0 Z " fill="#3AAAAE" transform="translate(104,87)"/>
<path d="M0 0 C1.61841797 0.08701172 1.61841797 0.08701172 3.26953125 0.17578125 C4.35621094 0.22089844 5.44289062 0.26601562 6.5625 0.3125 C7.39394531 0.37050781 8.22539062 0.42851563 9.08203125 0.48828125 C8.75203125 1.14828125 8.42203125 1.80828125 8.08203125 2.48828125 C6.80328125 2.61203125 5.52453125 2.73578125 4.20703125 2.86328125 C0.79040749 3.17834765 0.79040749 3.17834765 -1.85546875 5.36328125 C-3.02845418 7.58403529 -3.02845418 7.58403529 -3.91796875 10.48828125 C-4.90796875 10.48828125 -5.89796875 10.48828125 -6.91796875 10.48828125 C-6.21919465 5.59686258 -5.39800681 0.90328093 0 0 Z " fill="#21A6AD" transform="translate(150.91796875,101.51171875)"/>
<path d="M0 0 C0.66 0 1.32 0 2 0 C1.67 1.98 1.34 3.96 1 6 C0.01 6 -0.98 6 -2 6 C-1.125 1.125 -1.125 1.125 0 0 Z " fill="#20A7AE" transform="translate(94,106)"/>
</svg>
