<?xml version="1.0" standalone="no"?>
<!DOCTYPE svg PUBLIC "-//W3C//DTD SVG 20010904//EN"
 "http://www.w3.org/TR/2001/REC-SVG-20010904/DTD/svg10.dtd">
<svg version="1.0" xmlns="http://www.w3.org/2000/svg"
 width="706.000000pt" height="674.000000pt" viewBox="0 0 706.000000 674.000000"
 preserveAspectRatio="xMidYMid meet">

<g transform="translate(0.000000,674.000000) scale(0.100000,-0.100000)"
fill="#000000" stroke="none">
<path d="M3535 5009 c-929 -500 -1406 -756 -2290 -1229 -352 -188 -648 -350
-657 -358 -10 -8 -18 -23 -18 -32 0 -9 164 -227 365 -485 l365 -468 0 -202 c0
-146 3 -206 13 -217 8 -11 203 -55 652 -148 352 -72 667 -138 699 -145 l59
-14 891 478 c490 263 1334 716 1876 1006 542 290 993 535 1003 543 15 13 17
37 17 222 0 161 -3 210 -13 219 -14 11 -98 29 -882 191 -242 50 -448 93 -457
96 -15 4 -110 123 -622 782 -127 163 -153 192 -175 191 -14 0 -386 -194 -826
-430z m1160 -104 c191 -246 346 -448 344 -450 -2 -2 -276 -149 -609 -328 -333
-178 -1156 -620 -1829 -981 -673 -361 -1227 -655 -1232 -654 -17 7 -689 882
-682 888 4 5 598 324 1318 711 1037 556 2332 1252 2342 1258 0 1 157 -199 348
-444z m520 -538 l110 -23 -75 -41 c-41 -22 -480 -256 -975 -519 -495 -262
-1284 -681 -1754 -931 l-854 -454 -81 16 c-45 9 -89 19 -99 22 -12 3 106 72
355 205 575 308 1193 640 1403 753 105 56 449 241 765 410 316 170 690 370
830 446 140 76 257 138 260 138 3 0 54 -10 115 -22z m316 -66 c45 -9 59 -17
68 -38 12 -26 16 -27 93 -8 17 5 135 -15 325 -55 164 -33 305 -64 313 -66 10
-4 2 -12 -25 -26 -22 -11 -418 -223 -880 -471 -462 -248 -1132 -607 -1490
-799 l-649 -348 -61 59 c-33 32 -86 75 -117 95 -68 43 -196 96 -238 99 -17 1
-30 3 -30 4 0 0 16 10 36 22 29 17 35 26 32 49 -5 42 -44 41 -123 -3 -57 -32
-65 -40 -65 -66 0 -36 34 -48 78 -25 l30 16 -11 -33 c-17 -45 -118 -144 -212
-205 -44 -29 -153 -89 -241 -133 l-161 -81 -80 17 c-78 17 -79 18 -75 45 3 21
-1 31 -17 39 -17 9 -30 7 -72 -14 -47 -24 -54 -25 -106 -15 -30 7 -53 13 -51
15 2 1 521 277 1153 613 633 335 1456 772 1829 971 374 198 682 359 685 357 3
-2 31 -9 62 -15z m899 -368 l0 -138 -228 -121 c-125 -67 -470 -252 -767 -412
-1420 -761 -2613 -1401 -2642 -1416 l-33 -17 0 140 0 139 43 25 c23 13 553
298 1177 633 624 334 1425 764 1780 955 355 191 651 348 658 348 9 1 12 -33
12 -136z m-3436 -1325 c33 -16 78 -42 100 -58 49 -33 104 -90 89 -90 -6 0
-154 -25 -329 -55 -175 -30 -320 -53 -322 -50 -2 2 11 11 30 21 107 55 278
193 308 249 17 31 34 29 124 -17z m-1464 -268 c52 -11 325 -67 605 -125 281
-58 518 -108 528 -111 15 -5 17 -21 17 -151 l0 -145 -22 5 c-13 3 -210 44
-438 92 -228 47 -507 105 -620 128 l-205 43 -3 147 -3 148 23 -6 c13 -3 66
-14 118 -25z m1460 -9 c-8 -5 -74 -40 -146 -79 l-132 -70 -138 29 c-76 16
-139 31 -141 33 -4 4 515 94 547 95 19 0 21 -2 10 -8z"/>
<path d="M5380 4192 c-57 -33 -65 -42 -65 -68 0 -24 4 -30 28 -32 46 -5 167
69 167 103 0 11 -34 35 -48 35 -9 0 -46 -17 -82 -38z"/>
<path d="M5095 4042 c-57 -31 -71 -43 -73 -65 -3 -20 3 -29 21 -38 20 -9 33
-6 83 22 97 53 110 71 78 103 -22 22 -30 21 -109 -22z"/>
<path d="M4809 3891 c-63 -33 -82 -52 -77 -77 8 -40 34 -40 113 -1 78 38 96
58 78 86 -16 26 -54 23 -114 -8z"/>
<path d="M4518 3735 c-68 -36 -90 -64 -68 -90 19 -23 49 -18 114 18 69 37 86
58 70 85 -17 27 -44 24 -116 -13z"/>
<path d="M4232 3584 c-76 -44 -91 -65 -62 -94 11 -11 23 -20 28 -20 4 0 39 17
77 38 72 40 90 67 65 98 -18 21 -39 17 -108 -22z"/>
<path d="M3942 3429 c-65 -36 -73 -43 -70 -66 6 -49 32 -52 105 -12 37 20 73
45 81 57 12 18 11 23 -7 41 -12 12 -24 21 -28 21 -5 0 -41 -19 -81 -41z"/>
<path d="M3656 3277 c-69 -37 -86 -58 -70 -84 18 -29 55 -25 124 15 66 38 81
61 60 87 -19 23 -49 18 -114 -18z"/>
<path d="M3368 3125 c-68 -36 -90 -64 -68 -90 19 -23 49 -18 114 18 69 37 86
58 70 85 -17 27 -44 24 -116 -13z"/>
<path d="M3081 2971 c-82 -46 -93 -63 -63 -93 l22 -23 78 40 c60 31 78 45 80
64 4 25 -20 52 -42 50 -6 -1 -40 -17 -75 -38z"/>
<path d="M2511 2670 c-72 -40 -81 -48 -81 -76 0 -41 42 -42 117 -3 72 38 89
59 73 89 -15 28 -46 25 -109 -10z"/>
<path d="M2218 2515 c-36 -19 -70 -39 -73 -45 -10 -17 3 -57 20 -64 16 -6 126
44 158 72 23 20 22 49 -2 62 -27 14 -27 14 -103 -25z"/>
</g>
</svg>
