<?xml version="1.0" encoding="UTF-8"?>
<svg version="1.1" xmlns="http://www.w3.org/2000/svg" width="200" height="200">
<path d="M0 0 C7.22443878 1.46930547 14.12854951 3.53619279 21.1328125 5.82421875 C22.30254105 6.20255356 23.47226959 6.58088837 24.67744446 6.97068787 C27.18887302 7.78346214 29.6997895 8.59764238 32.20993042 9.41436768 C36.16994583 10.70275569 40.13176229 11.9855366 44.09399414 13.26708984 C45.43727138 13.7015983 46.78054836 14.13610758 48.12382507 14.57061768 C48.79044348 14.78623604 49.45706188 15.0018544 50.14388084 15.22400665 C52.17273455 15.88044824 54.20141594 16.53741989 56.23005676 17.19451904 C68.62112595 21.2072038 81.02699132 25.17289359 93.4375 29.125 C97.20841024 30.32658167 100.97921894 31.52848175 104.75 32.73046875 C105.62960892 33.01080963 106.50921783 33.29115051 107.41548157 33.57998657 C119.28427198 37.36397574 131.14321763 41.17856734 143 45 C143.06634309 56.15577525 142.71663266 67.26022083 142.15771484 78.40087891 C142.05226456 80.6401467 141.96152597 82.88015405 141.88525391 85.12060547 C141.77210604 88.39043567 141.60983044 91.65469331 141.4375 94.921875 C141.41316895 95.91475525 141.38883789 96.9076355 141.36376953 97.93060303 C141.01305025 103.48520279 140.10839537 106.46748785 136.1171875 110.45800781 C134.7491886 111.64376368 133.37695736 112.82465904 132 114 C130.87335389 115.22977745 129.76538552 116.47726796 128.6875 117.75 C125.18797953 121.82202266 121.56120713 125.76731772 117.90698242 129.70019531 C115.77904705 132.00319216 113.76289679 134.30965938 111.85546875 136.80078125 C110 139 110 139 107 140 C104.5300293 139.01879883 104.5300293 139.01879883 101.57421875 137.45703125 C99.93223511 136.59791138 99.93223511 136.59791138 98.25708008 135.72143555 C97.06705543 135.08543163 95.87719973 134.4491115 94.6875 133.8125 C93.45439315 133.16180898 92.22090877 132.51183295 90.98706055 131.86254883 C82.84849414 127.56784182 74.75925165 123.18140985 66.69506836 118.7487793 C58.58733448 114.29683288 50.4229049 109.95565031 42.25 105.625 C20.1367093 93.90458889 20.1367093 93.90458889 9.6418457 88.17944336 C4.53325427 85.399657 -0.59322394 82.68266027 -5.80551147 80.10327148 C-8.43097757 78.80059761 -11.043685 77.47338617 -13.65588379 76.14434814 C-14.91386166 75.51302351 -16.17793684 74.89368638 -17.44812012 74.28729248 C-27.37890969 69.54090571 -27.37890969 69.54090571 -28.98779297 65.54931641 C-29.25204317 63.26910005 -29.28935657 61.27249982 -29 59 C-20.94908797 53.83526398 -12.69976466 49.0966957 -4.3125 44.5 C-3.33200684 43.95956055 -2.35151367 43.41912109 -1.34130859 42.86230469 C-0.42043457 42.36118164 0.50043945 41.86005859 1.44921875 41.34375 C2.27768311 40.89193359 3.10614746 40.44011719 3.9597168 39.97460938 C6 39 6 39 8 39 C7.75765625 37.92516357 7.5153125 36.85032715 7.265625 35.74291992 C6.36787305 31.75731109 5.47431763 27.77077123 4.58203125 23.78393555 C4.19515674 22.05809224 3.80714254 20.33250401 3.41796875 18.60717773 C2.85898262 16.12810277 2.30409298 13.64814133 1.75 11.16796875 C1.57500977 10.39599655 1.40001953 9.62402435 1.21972656 8.82865906 C0.55160107 5.82303955 0 3.08946129 0 0 Z M-6.04296875 47.77734375 C-6.75066406 48.16019531 -7.45835938 48.54304688 -8.1875 48.9375 C-8.90292969 49.31777344 -9.61835937 49.69804688 -10.35546875 50.08984375 C-11.16951172 50.54037109 -11.16951172 50.54037109 -12 51 C-11.34 51.66 -10.68 52.32 -10 53 C-7.03 51.35 -4.06 49.7 -1 48 C-3.85302199 46.69736489 -3.85302199 46.69736489 -6.04296875 47.77734375 Z M123.0546875 106.6796875 C122.33539063 107.40414062 121.61609375 108.12859375 120.875 108.875 C120.15054688 109.59429687 119.42609375 110.31359375 118.6796875 111.0546875 C116.78215309 112.82394138 116.78215309 112.82394138 117 115 C121.13639336 113.40907948 124.23213248 110.39525082 127 107 C127 106.34 127 105.68 127 105 C124.82394138 104.78215309 124.82394138 104.78215309 123.0546875 106.6796875 Z " fill="#000000" transform="translate(44,35)"/>
</svg>
